<svg width="112" height="150" viewBox="0 0 112 150" fill="none" xmlns="http://www.w3.org/2000/svg">
<path d="M0.314981 6.29962C0.143626 2.87252 2.87611 0 6.3075 0H105.693C109.124 0 111.856 2.87252 111.685 6.29963L104.785 144.3C104.625 147.493 101.99 150 98.7925 150H13.2075C10.0103 150 7.37464 147.493 7.21498 144.3L0.314981 6.29962Z" fill="#8E8B8B"/>
<path d="M12.1554 45.1479C12.0708 43.435 13.4368 42 15.1517 42H96.8483C98.5632 42 99.9292 43.435 99.8446 45.1479L96.9324 104.148C96.8536 105.745 95.5355 107 93.9361 107H18.0639C16.4645 107 15.1464 105.745 15.0676 104.148L12.1554 45.1479Z" fill="#D9D9D9"/>
<path d="M3 11.5C3 11.2239 3.22386 11 3.5 11H108.5C108.776 11 109 11.2239 109 11.5C109 11.7761 108.776 12 108.5 12H3.5C3.22386 12 3 11.7761 3 11.5Z" fill="#D9D9D9"/>
<path d="M3 13.5C3 13.2239 3.22386 13 3.5 13H108.5C108.776 13 109 13.2239 109 13.5C109 13.7761 108.776 14 108.5 14H3.5C3.22386 14 3 13.7761 3 13.5Z" fill="#D9D9D9"/>
<path d="M3 15.5C3 15.2239 3.22386 15 3.5 15H108.5C108.776 15 109 15.2239 109 15.5C109 15.7761 108.776 16 108.5 16H3.5C3.22386 16 3 15.7761 3 15.5Z" fill="#D9D9D9"/>
</svg>
