<svg width="100" height="168" viewBox="0 0 100 168" fill="none" xmlns="http://www.w3.org/2000/svg">
<path d="M3.5 0H96.5L100 143.5L96.5 168H3.5L0 143.5L3.5 0Z" fill="#D9D9D9"/>
<rect x="7.5" y="9" width="84" height="153" fill="#B3B3B3"/>
<path d="M10.637 63.1311C10.5623 61.4244 11.9258 60 13.6341 60H85.3659C87.0742 60 88.4377 61.4244 88.363 63.1311L85.7818 122.131C85.7116 123.735 84.3905 125 82.7846 125H16.2154C14.6095 125 13.2884 123.735 13.2182 122.131L10.637 63.1311Z" fill="#D9D9D9"/>
<path d="M5.5 13.5C5.5 13.2239 5.72386 13 6 13H93C93.2761 13 93.5 13.2239 93.5 13.5C93.5 13.7761 93.2761 14 93 14H6C5.72386 14 5.5 13.7761 5.5 13.5Z" fill="#D9D9D9"/>
<path d="M5.5 15.5C5.5 15.2239 5.72386 15 6 15H93C93.2761 15 93.5 15.2239 93.5 15.5C93.5 15.7761 93.2761 16 93 16H6C5.72386 16 5.5 15.7761 5.5 15.5Z" fill="#D9D9D9"/>
<path d="M5.5 17.5C5.5 17.2239 5.72386 17 6 17H93C93.2761 17 93.5 17.2239 93.5 17.5C93.5 17.7761 93.2761 18 93 18H6C5.72386 18 5.5 17.7761 5.5 17.5Z" fill="#D9D9D9"/>
</svg>
