<svg xmlns="http://www.w3.org/2000/svg" width="36" height="36" fill="none" viewBox="0 0 36 36"><path fill="#cca68c" d="M26.4 27.65c-5.526 5.482-13.641 8.27-19.388 3.02a26 26 0 0 1-1.682-1.683C.08 23.241 2.867 15.126 8.35 9.6q.623-.628 1.25-1.251c5.527-5.483 13.642-8.27 19.388-3.02a26 26 0 0 1 1.683 1.683c5.25 5.747 2.463 13.862-3.02 19.388q-.622.627-1.25 1.25"/><path fill="#5d0505" d="M20.139 31.31c-.051.025-.263.112-.353.15.095-.058.538-.239.353-.15M9.899 33.57q.132.04.266.078c-.245-.09-.578-.218-.798-.324-.036-.017.066.009-.02-.03-.085-.04-.079-.01-.205-.065-.145-.06-.76-.402-.969-.534a11.8 11.8 0 0 1-2.164-1.644c.683.59.02-.03-.169-.199-.04-.039-.077.013-.711-.634-.361-.377-.048-.14-.499-.59l-.171-.175.152.192c.07.094.052.084-.018.017a9 9 0 0 1-.558-.625 15 15 0 0 1-.783-1.076c-.07-.105-.2-.26-.287-.408-.06-.101-.092-.186-.176-.338a10.6 10.6 0 0 1-.928-2.263c.206.44-.074-.37-.072-.41-.032-.192.202.657.123.318a11 11 0 0 1-.306-1.426c.047.397-.138-.516-.118-.69-.106.076.01-2.208.082-2.541.009-.071-.1.387.073-.687.022-.115.035-.067.043-.128.005-.036-.02-.27.064-.495.036-.081-.058.464.21-.72-.206.445.43-1.626.626-1.972q-.056.105-.111.211c.164-.357.17-.428.205-.51.14-.326.362-.757.506-1.054.168-.344.13-.367.356-.754l-.175.268q.218-.411.453-.81c-.305.651.078-.135.108-.182.045-.08-.002.045.074-.088.008-.013-.024-.006.097-.208.255-.421.238-.338.35-.512.01-.016-.044.028.15-.272.628-.94.006.012-.013.051-.026.05.249-.23-.294.56.18-.267.23-.273.25-.303l.341-.516c.146-.232-.012-.05.015-.095.02-.04.439-.564.475-.734.251-.212-.065.182-.367.628-.034.071.322-.399.342-.422.458-.607.16-.306.23-.461.039-.082.263-.3.044-.108.427-.545.19-.197.22-.23.048-.049.19-.245.21-.267.031-.032-.053.098.063-.033.02-.021.177-.258-.068.012.316-.37.273-.356.42-.446.146-.318.206-.142.298-.236.246-.25.12-.227.13-.244.045-.074.364-.407.626-.667a10 10 0 0 0 .285-.29c-.012.052-.135.177-.27.306-.147.14-.305.288-.354.348-.32.388.512-.49.31-.177l.093-.123.18-.236c.222-.158-.034.126.466-.399.055-.112-.357.368-.29.256.04-.066.333-.366.332-.379s-.26.264-.231.21c.064-.122 1.072-1.073.34-.313.18-.181.326-.244.47-.387q.033-.033.066-.073c.042-.049-.039.004-.101.038-.052.028-.091.04-.034-.033.059-.074.208-.233.537-.532.046.004-.414.407-.422.422-.013.018.124 0 .14-.01.05-.044 1.111-1.076 1.386-1.235-.13.038.863-.71.968-.796.027-.025-.099.033-.07.007.18-.16.74-.5.992-.665.281-.188.233-.184.248-.194.126-.08.036-.001.112-.051.112-.08.923-.569.964-.591.012-.008-.137.045.04-.063.031-.018.026.016.556-.287.647-.362-.472.204-.218.03.442-.182.408-.216.524-.272.04-.02.355-.133.683-.287q-.35.173-.69.36c.229-.111.672-.334.867-.411.095-.039.032.027.235-.064.044-.018.178-.174-.337.1-.055-.008.205-.105.32-.164.018-.01.069-.087.234-.122.041-.005-.308.28.688-.222.033-.016-.091.011-.06-.005.022-.011.292-.102.32-.115.03-.013-.106.014-.072-.002.178-.086.448-.095.065.033q.196-.054.393-.104c-.157-.011.197-.084.375-.14 1.156-.341.37-.157.564-.232.316-.114.093.043.57-.1.046-.008-.557.064.603-.144a15 15 0 0 0-.51.107c.108.032.614-.127.655-.132.455-.08.148-.02.829-.134.06-.01.196-.01.327-.028.544-.077-.721.05-.757.046-.02-.024 1.345-.15 1.395-.13.2.013-.621.044-.462.066.052-.027 2.016-.052 2.408.052.453.069.641.185.658.102.113.103.234.07.291.083.688.16.688.166 1.268.34.128.04.226.102.272.114.027.008-.013-.035.117.004.186.041 1.2.534 1.262.598.068.049-.426-.209-.347-.142.361.178.7.358 1.045.574.143.09.06.058.12.097.027.013.513.326.496.31-.022-.074-1.567-.974-1.149-.759.083.038.343.232.321.167.765.456 1.47 1 2.108 1.605q.735.7 1.416 1.45c-.45-.455-.933-.959-1.432-1.433q-.285-.271-.575-.51c-.101-.087-.45-.362-.42-.31.318.245.657.527.984.833.32.299.629.605.887.881.017.018-.058-.031.002.035.112.122.506.496.561.57.01.012-.219-.196-.167-.116.133.205.242.187.38.342l.049.057c.209.233.754.983.908 1.179.2.223-.47-.68-.41-.624.494.585.893 1.256 1.223 1.897.006.011-.029-.097.047.047.13.252.136.33.19.456.058.133.257.619.27.687a1 1 0 0 1-.066-.095c-.09-.206-.093-.294-.1-.313-.029-.073-.071-.138-.099-.202-.045-.107-.06-.17-.126-.31-.046-.096-.021.007-.065-.085-.015-.036-.154-.42-.221-.425-.011-.002.385.723.668 1.54.296.815.46 1.707.49 1.867a11 11 0 0 0-.156-.832c.13.559.263 1.234.209 1.29.266 2.102-.075 4.21-.762 6.136-.13.342-.085.146-.297.707q.102-.21.198-.423c-.102.291-.666 1.532-.77 1.724-.011.025-.003.075-.158.376-.14.266-.181.298-.263.437-.069.117-.14.25-.16.283-.017.027-.033.031-.072.094-.125.197 0 .051-.151.23l.083-.146c-.15.24-.366.553-.157.199.036-.062.014-.004.041-.05 1.027-1.802.207-.36-.167.26-.107.153-.682 1.022-.71 1.045-.031.037.061-.115-.083.069-.022.044-.862 1.15-.573.742.062-.082.466-.612.556-.744-.242.291-.748 1.016-.815 1.09-.256.31.461-.616-.108.085-.445.532-.012.044-.177.255-.09.12-.627.694-.594.695-.18.2-.084.075-.108.098-.021.024-.378.416-.504.534-.015.014.02-.042.005-.028l-.403.407c-.009.01.086-.067.053-.03l-.106.105c-.118.115-.29.28-.302.295-.018.022.213-.202.308-.288.034-.03.05-.044.034-.023l-.029.028c-.2.192-.496.486-.615.613.03-.033.224-.218.291-.282-.018.043-.434.44-.302.294-.085.092-.02.036-.066.09-.012.014-.14.136-.163.162-.003.003.135-.118.11-.09-.043.05-.435.42-.468.448-.093.082.222-.223.243-.254.003-.004-.278.242-.283.245-.025.006.282-.273.24-.25l-.23.207c.28-.28.812-.784.937-.926-.419.412-.864.835-.885.812-.009-.01.168-.19.158-.187-.035.018-.279.27-.289.28q-.012.01-.013.008c-.004-.004.353-.356.368-.376.026-.033-.15.105-.154.101.005-.006.256-.259.164-.181-.094.078-.318.295-.327.302-.046.038.341-.347.35-.36.005-.008-.212.19-.22.194-.007.003.148-.158.204-.226.041-.05-.099.08-.075.055.016-.017.384-.38.4-.398.026-.028-.066.05-.055.037.016-.02.136-.135.119-.122-.014.01-.494.443-.496.435-.004-.015.502-.475.014-.064l-.113.118c-.075.06.266-.3-.162.13.788-.81.086-.113.189-.247.04-.051.345-.364.345-.367-.038.023-.13.128-.167.157-.02.017.247-.27.18-.213-.035.03-.326.327-.34.338-.12.112.017-.037-.012-.015-.02.015-.196.193-.2.198-.01.006.22-.246.267-.3.035-.04-.111.1-.086.072.152-.169.507-.496.157-.189l-.147.149c-.083.07.142-.161.177-.209.06-.08-.26.258.003-.026-.208.201-.32.317-.556.562.652-.677.855-.943.13-.192.232-.238.192-.226.26-.297.043-.045.391-.377.205-.25-.023.015-.22.231-.165.157.488-.504.005-.016.004-.017-.006-.012.267-.3.575-.621.33-.343.683-.736.78-.852.217-.257.387-.505.433-.562.15-.187.035-.024.073-.063.04-.037.44-.593.459-.621.084-.102.016.015.024.004.11-.122.633-.877.773-1.092-.012.001-.302.427-.136.151.192-.322.24-.314.248-.321.932-1.438 1.695-2.984 2.195-4.6-.027.012-.37 1.066-.391 1.085-.055.135.545-1.633.581-1.858q-.072.25-.155.497c.05-.295.254-.917.313-1.339.02-.136-.043.121-.043.115.016-.154.068-.396.055-.21.045-.375.056-.315.097-.602.002-.015-.029.106-.007-.121.013-.106.063-.671.05-.747-.004-.032-.083.248-.035.289-.082.609.006.198-.02.436-.008.036-.015-.05-.093.55-.027-.123.096-.805.095-.925.013-.244-.115.755-.117.944-.026-.093-.015.07-.058.293-.049.243-.04.134-.066.265-.077.359-.019.218-.112.506.145-.268-.117.51-.21.729q.162-.558.279-1.126l-.026.062q.033-.15.064-.297l.002.05c.075-.517.113-.638.121-.68.085-.54.134-1.166.133-1.713-.003-.082-.018-.026-.023-.62-.005-.19.028-.012.01-.227-.081-.264-.036-.261-.044-.34-.026-.228-.063-.364-.066-.384a10 10 0 0 0-.203-.98c-.001-.005.02.154-.024-.04-.014-.067-.104-.7-.344-1.2q.074.201.139.407c-.032-.171-.545-1.229-.446-.958.067.16.29.536.258.598-.074-.398-1.23-2.226-1.371-2.331-.013-.02.09.083.071.056-.011-.022-.331-.405-.37-.456-.023-.033.128.126.121.109a5 5 0 0 0-.388-.436.4.4 0 0 0-.075-.063q.03.028.07.069c.13.133.302.34.165.21-.021-.02-.113-.141-.14-.166l-.038-.033q-.029-.021-.006.005c.073.089.48.548.553.647-.163-.186-.35-.401-.567-.634-.34-.363-.716-.75-1.05-1.049-.203-.22.343.286.108.04-.49-.506-.154-.109-.171-.122-.113-.086-.373-.41-.5-.503q-.048-.034-.064-.019c-.178-.17-.111-.128-.382-.335l.093.097c-.315-.211-.908-.757-.857-.73.152.069.47.342.499.364.041.033.219.049.618.484.221.11-.693-.614-.257-.31-.269-.247-1.493-1.072-1.704-1.122-.024-.008.056.091-.256-.093-.15-.086.224.093.159.048-.098-.072-.894-.472-1.799-.7-.9-.244-1.888-.3-2.201-.304-.04 0-.025-.018-.065-.02-.124-.004-.574.025-.795.03.459.013-.428.055-.654.085-.343.033-.325.001-.474.015-.577.05-1.435.335-1.885.4.043.058-.76.2-1.105.337-.272.103-.64.31-.269.189-.462.183-.936.416-1.352.634-.069.035.016-.033-.1.03-.011.006-.016.032-.116.087-.818.463-.436.208-.597.281q-.133.064-.202.102c.473-.284 1.033-.58 1.185-.653-.153.015-1.076.572-1.348.73-.01.006.01-.036 0-.03-.104.055-.737.467-.589.41.04-.015.331-.204.682-.415-.092.062-.006.045-.022.056-.197.13-.705.418-.878.53-.04.026-.027.04-.033.044-.159.101-.125.014-.253.169-.32.136.523-.367.444-.361-.077-.022-1.833 1.28-1.779 1.336a.3.3 0 0 0-.09.046c-.118.071-.579.468-.65.546-.012.013.027.047.01.062-.041.034-.62.503-.796.72q.17-.148.341-.293c-.656.62-.539.54-.314.34l.033-.029c.175-.153.402-.347.409-.347.013 0-.393.384-.663.645-.181.174-.31.288-.238.19.01-.015.12-.12.215-.213.118-.116.216-.213.062-.088l-.077.073c-.114.113-.303.307-.318.318-.077.057.121-.165.284-.352.117-.136.217-.252.169-.226a3 3 0 0 1-.185.21c-.129.133-.274.27-.4.404-.09.095-.095.135-.106.147-.165.175-.089.06-.145.118-.03.03-.324.406-.317.287l-.272.296c-.37.414-.253.308.027.027.18-.178.424-.425.655-.657-.149.179-.434.46-.642.67l-.157.163c-.062.067-.006.046-.11.162-.223.23-1.252 1.358-1.494 1.675.145-.197.078-.159-.038-.01-.114.15.013.049-.006.08-.024.032-.57.728-.646.854.378-.548.266-.445-.066.015q.06-.107.123-.215c-.187.274-.611.83-.7 1-.015.027.063-.051.055-.036-.084.145-.401.62-.406.649-.006.022.136-.176.098-.094-.008.017-.156.202-.262.408-.04.076.005.041-.004.06-.078.163-.06.05-.211.343-.11.216-.158.388-.314.682.53-.95.093-.147-.082.271-.028.068.031.025-.16.414.309-.872-.148.224-.23.451-.005.012-.031.007-.075.118-.003.01.018.002-.02.106-.342.986-.133.352-.217.533-.036.077-.164.569-.198.7-.008.03-.022.011-.053.128-.056.207-.082.4-.112.536-.003.017-.034.01-.08.274-.013.074-.019.159.01.056.094-.341.214-1.003.365-1.38.13-.342-.2.761-.203.823-.006.021.035-.2-.023.02-.05.189-.079.546-.14.827a3 3 0 0 1-.085.23c-.002-.01.051-.36.03-.311-.002.006-.041.227-.055.255-.016.034-.138.115-.148.163-.025.123.011.046-.002.125-.031.17-.12.765-.08.787q.014-.148.03-.295c-.042.547-.004.315-.004.393.003.084-.03.058-.04.243-.01.04-.004.812.015.797-.031-.425.014-.268.014-.288.002-.074-.02-.17-.017-.27.027-.704.037.008.052-.159.005-.056-.01-.17-.007-.195.008-.079.033-.079.034-.132.004-.122-.041.019-.043.009-.017-.111.05-.538.065-.268.028-.159-.017-.182.016-.307.067-.248.012.128.01.231-.008.367-.038.476-.039.994.001.187.03.406.036.492 0 .053-.041.573.085.574.007.197-.03.518.01.72.035.18.067.114.072.131.007.025.048.243.07.315.027.083.033.037.072.17.1.33.06.332.067.368.087.404.095.212.127.298.013.086.437 1.199.588 1.409a10 10 0 0 1-.16-.264c.056.178.185.33.145.356.083-.004.223.353.287.45.023.037.032.028.062.075.114.187.39.604.468.694.326.402-.41-.698-.44-.796.09.185.794 1.125.505.667-.044-.07-.155-.17-.182-.207-.185-.26-.02-.069-.032-.091-.02-.037-.158-.195-.184-.244-.008-.016.075.069-.08-.185.089.114.546.823.627.904.028.027-.088-.192.325.401l-.005-.03q.099.117.202.232.318.357.65.702c-.04-.026-.221-.183-.01.032.122.123.051.012.063.023.048.046.426.442.894.885.586.572 1.39 1.13 1.637 1.273.146.094.57.309.605.324.189.107.889.431 1.038.476.091.032.012-.018.092.013.075.028-.01.017.013.026.172.102 1.63.455 1.992.487-.22-.017-1.291-.217-1.27-.21.003.003.258.083.313.088.085.037.398.055.563.092.019.003-.06.02.239.07.103.018.376.035.65.08.395.079 2.528-.017 2.669-.11.004 0-.295.033-.096-.006.265-.054.033.03.346-.017.05 0 .914-.187.94-.203.254-.087-.501.08-.492.07.025-.009.649-.158.674-.166.025-.005-.475.158.133-.012q-.106.023-.213.043c.284-.08.319-.069.389-.086.215-.057.438-.158.792-.234.094-.02-.051.043-.04.04.114-.022.238-.107.412-.14.012-.003-.357.156.3-.093l-.138.045c.09-.037.75-.311.837-.352.259-.11.043.007.3-.113-.174.055.599-.316.564-.28.096-.075.754-.398 1.05-.574.191-.108.563-.35.622-.386.073-.044.06-.016.192-.095.037-.022.412-.279.748-.495.065-.042.214-.115.101-.026-.193.154-.594.397-.58.406.017.013.53-.351.668-.45.639-.455.284-.174.304-.181.05-.02.391-.28.405-.291.062-.042-.172.152-.17.161.002.012.34-.229.268-.168-.103.088-.414.307-.433.322-.245.196.114-.042.215-.107.03-.02-.08.073-.055.056.37-.268.056-.084.296-.27.213-.166-.05.063-.04.057.01-.007.264-.21.306-.238.023-.011-.618.535-.583.523q.316-.25.625-.51c.028 0-.28.235-.311.26-.06.054.12-.08.116-.07-.001.006-.2.181-.01.036.065-.05.19-.167.427-.351-.79.675-.229.224-.201.209s-.346.314.116-.074c.042.008-.003.017-.13.131-.16.139.226-.159-.377.319.046-.013.522-.407.547-.429.022-.017-.078.077-.039.048.461-.355.15-.106.289-.202.013-.008.427-.368.117-.088-.569.508-.837.683-.905.803.455-.336.948-.812 1.074-.928.194-.177-.001.013.024-.007.01-.007.176-.16.178-.162.145-.081-.746.678-1.032.91q.12-.089.238-.178-.153.13-.308.258c.498-.399.02-.01-.085.113-.023.028.295-.247-.065.07.277-.219.194-.143.434-.355.003.015-.544.486-.767.663.794-.615.323-.288 1-.831.112-.116-.2.157-.176.132.087-.085.312-.26.546-.511.038-.041-.146.106.112-.128.029-.025.2-.168.198-.165-.015.027-.178.174-.183.183-.003.009.175-.16.177-.16.013.004-.147.143-.122.125.055-.039.718-.625-.132.157.693-.663.085-.09-.191.162-.07.064-.084.086-.184.177-.13.118-.288.247-.356.306-.074.064.363-.276-.256.231.33-.242.858-.729 1.157-.994.604-.535-.39.407-.502.498-.028.025.075-.051.056-.034-.029.03-.623.533-.679.586-.053.056.22-.182.243-.192.019-.003-.703.6-.306.282.276-.218.747-.661.844-.716q-.574.519-1.181 1.002.343-.25.676-.514c-.44.379-.842.68-1.278 1.02 1.08-.771-.326.285-.346.29-.004.007.437-.276.506-.324-.358.297-1.531 1.086-.825.656a7 7 0 0 0-.417.294c.05-.009.7-.465.602-.38-.115.1-.3.2-.493.328-.997.645-.671.56-1.731 1.125l.067-.024a17 17 0 0 1-3.668 1.44c-.488.178-1.861.455-2.555.48-.139.015-.823.017-.875.009-.095-.005.431-.014.193-.022-.05.012-1.208-.042-1.128-.027.13.015.538.025.605.03.234.019-.547.027-1.404-.107-.86-.122-1.768-.42-1.855-.445q.111.049.223.095a11 11 0 0 1-.647-.235m9.5-1.899c.107-.059.395-.163.558-.24.227-.103.584-.339.446-.206q-.495.24-1.004.446m-5.136.982c.237.012.054.056-.14.033-.023-.003-.18-.055.14-.033m2.495-.212-.222.04c-.187.018.431-.094.222-.04M6.116 28.432c.183.199.087.02-.04-.091a.3.3 0 0 0 .04.09m.128.143c.11.186.462.434.226.194a5 5 0 0 0-.226-.194m8.867 4.074c-.026.015-.272.021-.377.02.003-.011.274-.011.377-.02m-5.857-1.428c-.019.012.706.426.768.43-.125-.047-.757-.428-.768-.43m-1.701-1.318c.005.006.042.042.085.081.067.061.149.13.15.122a2 2 0 0 0-.138-.135c-.076-.069-.138-.115-.097-.068M4.775 26.56c-.008-.012.023.214-.17-.256-.028-.069.112.155.102.13a2 2 0 0 0-.055-.122c.113.205.24.415.249.438.038.109-.123-.184-.126-.19m-.892-2.01a2.6 2.6 0 0 1-.106-.417c-.002-.012.042.032.01-.104-.026-.109-.026.063-.064-.152-.037-.218.044.066.042.047-.004-.026-.081-.358-.058-.351.015.005.07.365.095.452.03.112.022-.03.06.158.025.118-.033.064-.029.09.001.021.137.424.05.275zm14.857 7.377c-.124.032.229-.1.368-.142.005.01-.349.137-.369.141m-14.247-5.85c-.139-.321-.021-.094.129.18-.052-.084-.08-.072-.129-.18m7.592 6.355q-.022-.01-.023-.02c.037.017.04.022.023.02m-.795-.237c-.276-.07.273.11.275.091 0-.005-.265-.088-.275-.091m-5.395-4.02c.016.022-.305-.24.123.173-.187-.225-.01-.034.02-.008l.005.003-.002-.006c-.029-.05-.353-.412-.41-.503-.083-.05.21.271.263.34zm-2.257-7.598c.012.073-.02.298-.033.449-.016-.072.013-.297.033-.449m28.663-8.953c-.33-.989-.328-1.135-.039-.223.006.018.064.282.04.223M26.643 4.78c-.067-.08.22.077.389.204.039.028.168.154-.006.05.03-.033-.227-.212-.383-.254M4.388 25.908c-.064-.081-.174-.38-.228-.535.053.087.173.4.228.535M30.813 8.553c-.064-.09-.133-.132-.123-.115.044.073.183.224.122.115M4.858 26.81c-.006.02-.227-.338-.208-.38.038.08.208.367.208.38m-1.263-5.947c-.015.065.007-.276.029-.377.014.01-.022.334-.03.377M29.612 7.199a3 3 0 0 0-.283-.272c-.036-.014.237.25.283.272m-.773 17.143c-.01.01.22-.328.33-.47.212-.27-.316.462-.33.47m2.565-14.926c.133.281-.017-.03-.035-.004.108.177.35.64.205.31-.029-.065-.12-.221-.17-.306m-.142-.252c-.026-.025-.171-.195-.065-.035.05.075.154.183.065.035m-1.005 13.101c.173-.241-.557.904-.59.93l-.027.032c-.024.044-.17.256-.197.273.046-.063.164-.236.179-.256l.014-.019c.048-.078.594-.91.621-.96m1.069-1.968c-.118.317-.187.35-.175.323.141-.338.068-.108.075-.118.013-.021.109-.264.1-.204m-.829 1.575-.158.267c-.13.194.28-.499.158-.267M3.531 22.917c-.01-.19.031-.007.036.12 0 .01-.026.048-.036-.12M31.174 9.039c-.007-.047-.68-.975-.675-.893.085.063.813 1.132.675.893m-6.657-5.2c.19.054-.028.03-.126-.009-.037-.015.077-.004.126.01M5.136 27.305c.133.16.057.164-.028 0-.003-.006.023-.006.028 0M25.991 4.408c-.633-.252-.431-.319.356.116l-.082-.025c.896.507.064.03-.17-.068-.088-.04-.024.012-.103-.023m-2.493-.791c-.642-.183.603.055.95.16-.35-.057-.792-.154-.197.016-.884-.188-.512-.132-.546-.146-.041-.01-.18-.023-.207-.03m1.682.43c.037.01.298.126.394.164-.143-.033-.638-.234-.394-.165m6.964 14.069c.007.028.001.092-.078.319.016-.073.055-.222.078-.32M19.643 31.65c.155-.062.46-.19.361-.162-.01.004-.363.155-.361.162m9.304-25.168c-.021-.029-.697-.644-.479-.415.069.066.677.632.479.415m2.827 3.584a5 5 0 0 0-.178-.33c-.022-.01.152.308.178.33M20.42 31.325c.02-.006.478-.231.424-.213-.1.039-.494.242-.424.213m-16.984-9.1c-.002-.04.021-.094.022-.108-.007-.032 0-.771.025-.489-.01.047.004 1.107.028 1.243-.03.056-.034-.397-.039-.507-.001-.02-.03-.03-.036-.138m28.316-2.923c.007.04-.341.884-.357.866q.19-.43.357-.866m.164-.432c.075-.18-.076.252-.13.374-.008-.002.12-.348.13-.374m-.932-10.257c-.055-.07.08.168.04.122-.024-.03-.131-.197-.175-.24a2 2 0 0 0 .119.21c.049.066.02-.011.071.063.17.244.3.475.439.715.012.022-.073-.154.034.032.016.028.097.211.216.439.308.48.417.89.647 1.572a8 8 0 0 0-.166-.575c-.183-.577-.673-1.547-1.038-2.066-.09-.135-.058-.062-.098-.12-.032-.044.028-.005-.089-.152m-11.418 23.08c.081-.013.333-.13.496-.202-.064.012-.332.14-.496.202M32.75 14.93c.005-.086.019-.355.012-.377a2 2 0 0 0-.012.377M4.08 18.084c.002-.009.069-.206.073-.213.081-.168-.12.422-.073.213m2.232-4.482c.086-.135.17-.273.222-.303-.062.081-.218.329-.222.303m4.702-5.249c-.048-.003.327-.31.4-.367-.018.033-.367.368-.4.367m21.204 9.75c-.088.284-.04.234-.112.41-.013.028-.106.101.018-.202.022-.055-.03.17.094-.208m-5.744-13.51c.073.016.267.131.397.212-.036-.006-.301-.164-.396-.212M21.25 30.927c.134-.049.698-.38.551-.31-.02.011-.469.27-.55.31M4.033 25.285c-.107-.228.065.263.153.406-.032-.069-.147-.39-.153-.406m5.74-15.756L10 9.307c.187-.15-.4.426-.226.222m-4.367 5.467c.029-.099.378-.66.476-.774-.055.134-.518.893-.476.774m27.106 1.924q-.065.308-.147.587c.002-.042.137-.566.147-.587m-21.99-8.134.033-.029zm22.073 3.515c-.03-.17-.046-.13-.045-.12.02.128.077.312.045.12m-12.83 19.338c.064-.008.335-.139.495-.209-.052.011-.367.155-.495.21m3.036-28.162c-.21-.052.658.003.834.063.01.012-.803-.065-.834-.063M4.3 26.02c-.012.024.171.34.145.267-.018-.047-.14-.282-.145-.267M24.06 3.636c.08.011.259.075.191.072-.086-.005-.212-.075-.192-.072m6.14 3.989a2 2 0 0 0-.094-.098c-.106-.103-.248-.232-.159-.12.085.107.121.112.145.133l.004.004c.03.026.523.633.104.08m-12.238-3.53c.172-.066.39-.123.576-.177a5 5 0 0 1-.576.177M3.798 24.715c-.011.049.399 1.17.186.527-.018-.037-.204-.66-.186-.527m28.995-9.899c.01.068.025-.272.018-.371-.013-.032-.017.361-.018.37M18.546 3.893c.105-.04.302-.083.436-.117-.02.019-.386.117-.436.117M11.64 7.7c.178-.139.393-.317.385-.334a.1.1 0 0 0 .032-.015c.016-.009.2-.166.288-.226.505-.377-1.863 1.57-.534.388zm-6.688 8.064c-.078.105-.206.44-.159.36.032-.057.235-.465.159-.36m2.708-4.108c-.029.027-.24.308-.237.323.137-.15.363-.444.237-.323m-3.144 4.986a.4.4 0 0 0-.036.171c.042-.07.107-.286.036-.171m27.929.886c.038-.114.109-.492.11-.577a1 1 0 0 0 .039-.128v.001c.1-.095.374-3.147.16-1.104-.009.064.018-.022-.019.239-.002.017-.015.023-.023.076-.015.122-.137.77-.16.9q-.003 0-.012.025c-.047.156-.123.657-.095.568m-24.33-6.401c-.053.048-.196.22-.2.249.078-.08.32-.361.2-.25m-4.361 13.64c.027.136.161.461.138.357-.018-.063-.172-.512-.138-.357M6.71 12.875c.506-.65.116-.159.173-.274zM31.012 21.1c.064-.117.015.034-.066.158-.026.038.03-.093.066-.158M27.5 26.02c.047-.037-.035.052-.106.124-.067.068-.124.121-.054.04l.046-.048zm2.614-3.339c.037-.085.068-.135.205-.351-.196.324.001.033-.205.351M12.021 7.365h.004zm-7.786 9.992c-.057.087-.152.357-.102.284a2 2 0 0 0 .102-.284m28.32-.406q-.008.019-.003-.017.003 0 .002.017M4.826 15.934c.01.016.21-.373.218-.389.09-.236-.141.224-.218.39m.104 11.372c.013.017-.034-.123-.092-.188-.046-.05.04.122.092.188m24.703-3.896c-.081.117-.198.28-.228.304.058-.076.224-.31.228-.303m-1.975 2.458c.107-.131.365-.419.526-.605.015.007-.42.488-.526.605m4.678-7.975c.005-.01.103-.349.077-.306-.037.062-.111.4-.077.306M4.602 26.736c-.087-.126.054.201.165.318.055.061-.152-.296-.165-.318m-.684-8.545c-.05.198.122-.277.126-.35-.033.089-.11.28-.126.35m3.327-6.121c-.455.473-.141.266-.079.169.01-.014.09-.18.08-.17m15.46 18.085c.077-.054-.228.12-.261.153-.02.02.212-.117.26-.153m-19.3-10.188c.164-.428.094-.393.101-.432.018-.083.082-.27.116-.426q-.05.27-.087.541c.019-.145.363-1.347.37-1.374-.01-.042-.116.34-.12.35-.006.015-.077.06-.089.095-.028.056-.26 1.082-.29 1.246m3.03-6.799c.066-.081.102-.092.126-.135.008-.015-.009-.03.02-.08zm-3.06 7.606c-.04.123.034-.44.042-.458.03-.093-.013.356-.042.458m1.34-4.65c-.011.017-.201.418-.185.422.055-.105.309-.64.185-.422m1.906-3.228c.094-.126.29-.35.243-.343q-.124.17-.243.343M4.302 26.31c.088.274.077.128-.02-.103-.052-.058.006.058.02.103m.415.805c.027.075.504.739.453.62-.021-.039-.306-.409-.315-.43-.015-.029.088.08-.052-.125 0 .017-.098-.09-.086-.065m-.334-.583c.103.264.194.285.09.101-.04-.072-.104-.139-.09-.101m-.475-1.043c.03.096.126.351.223.508a10 10 0 0 1-.278-.688c-.021-.022.028.096.056.18m22.563 1.735c.172-.165-.21.231-.227.247-.053.044.15-.173.227-.247m-2.075 2.117c.054-.038.096-.055.206-.152q-.18.129-.362.252c-.077.086.097-.058.156-.1m.483-.295c-.016.014.092-.035-.128.12-.147.107.599-.537.736-.65-.141.136-.473.414-.608.53m1.368-1.067c.01-.006-.258.259-.291.287-.172.151.24-.25.29-.287m-.882.816c.136-.114-.154.15-.245.223-.012.003.225-.206.245-.224m3.107-3.001c.147-.126.226-.284.034-.061a.3.3 0 0 0-.034.06m-2.47 2.462c-.132.118.15-.155.234-.235a5 5 0 0 1-.234.235m2.6-2.526c.185-.176.084-.147.061-.125-.093.092-.386.434-.447.502.458-.492.299-.295.387-.377m.752-.903c.146-.185-.25.27-.315.366.077-.09.273-.313.314-.366m.9-1.117c.079-.101.303-.406.33-.464-.076.115-.305.415-.33.464m.194-.217c.127-.154.122-.215-.001-.022-.005.008-.004.028.001.022m.643-.918c.085-.102.131-.25.016-.07-.034.053-.025.08-.016.07m-2.23 2.959c.131-.135.273-.331.005-.035q.137-.16.27-.322c-.354.384-.307.375-.409.485-.144.153-.152.122-.13.086-.09.118-.473.526-.775.822l-.136.135.14-.132c.264-.25.6-.584.813-.807.072-.076.135-.155.196-.221.097-.105.02-.004.026-.01zm2.986-4.227c.2-.331.049-.135-.05.06a1 1 0 0 0 .05-.06m-5.424 6.655c-.373.351-.11.088-.877.835.32-.317.01-.026.07-.09.048-.052.244-.229.125-.132.159-.125.78-.742.805-.771.017-.015-.006.045-.123.158m3.911-4.197c.113-.078.085-.16.263-.343.154-.303-.547.75-.685.839.842-1.082-.593.687.05-.027-.51.602-.155.207-.225.307-.074.108-.369.444-.343.436q.266-.314.52-.636c-.195.189.161-.242.297-.377q.063-.099.123-.2m-.987 1.189c.02-.02.393-.48.362-.455-.05.061-.589.707-.362.455m-1.783 1.894.273-.264c.083-.08.155-.154.19-.197-.057.057-.127.125-.196.191a5 5 0 0 0-.267.27m5.831-9.185c.063-.267-.178.544-.093.314.005-.012.09-.3.093-.314m-2.704 5.596c.17-.22.058-.137-.05.037-.006.01.042-.027.05-.037m-4.56 4.998c-.006.02-.55.528-.65.614.053-.054.66-.633.65-.614m1.19-1.128c.186-.156.394-.363.543-.518.11-.114.189-.201.208-.22.045-.044-.015.036-.004.026.025-.021.49-.5.51-.526.016-.017-.082.057.007-.048-.104.123-.452.485-.733.756l-.354.344c-.034.034.243-.206-.177.185m.865-.847c-.123.113.204-.22.284-.301.18-.177-.267.288-.284.301m.779-.812c.038-.038.358-.4.376-.438-.157.166-.46.525-.376.438m3.102-4.39c.058-.113.224-.418.223-.441-.055.115-.223.418-.223.44m-7.8 8.909c.169-.125-.209.179-.324.26-.009 0 .31-.25.325-.26m6.53-6.716c.056-.053.88-1.334.971-1.532a38 38 0 0 1-.969 1.505c-.01.017-.009.035-.003.027m-2.075 2.547c-.086.11-.16.166-.172.178-.12.124-.37.378-.323.315.22-.21.666-.711.495-.492m3.46-4.804c.236-.462-.244.412-.17.304.005-.007.147-.256.17-.304m-1.48 2.399c-.047.106-.987 1.306-1.155 1.483.126-.18.25-.305.432-.536.05-.062.03-.05.035-.057.085-.108.029-.022.081-.088.039-.038.69-.94.606-.802m-2.028 2.469a19 19 0 0 1-.76.777c-.027.023-.025.019-.003-.004.113-.112.722-.728.763-.773m2.124-2.572c-.071.149-.538.748-.239.324.029-.04.161-.204.24-.324m1.382-2.235c.014-.02.268-.502.262-.516-.034.072-.406.77-.262.516m-.107.262c.006-.012-.07.092.054-.13.01-.02.048-.045.19-.331.028-.058.062-.154.058-.148-.172.286-.616 1.188-.302.609m-3.402 4.566c.04-.033-.032.069-.116.143-.036.031.018-.04.116-.143m4.257-6.382c-.106.3.275-.623.282-.675-.018.029-.268.645-.282.675M23.935 30.36c-.212.157-.087.05-.097.057-.46.325-.328.252-.397.307-.15.114-.14.075-.396.266.423-.316.034-.035.016-.035-.07 0 .583-.386.785-.555.03-.023-.194.129-.121.07.239-.189 1.012-.725.21-.11m4.562-4.25a10 10 0 0 1-.57.563c-.037.033-.046.038-.005-.004.037-.032.69-.696.575-.56M10.932 5.87c.165-.158-.264.152-.328.228-.033.037.255-.159.328-.227M8.17 8.282c-.18.187-.312.445-.093.205.024-.026.123-.218.093-.206m16.056-6.447c-.284-.09-.277-.031-.065.011.075.016.074-.008.065-.01m-10.6 2.147c-.027.012-.307.183-.29.188.108-.056.455-.268.29-.188M24.32 1.847c-.174-.028.113.074.329.09-.106-.024-.312-.088-.33-.09m6.862 21.03c.066-.12.284-.447.4-.639.029-.011-.312.507-.4.64M8.985 7.52c-.168.195.237-.176.181-.161a6 6 0 0 0-.181.161m22.817-.494c-.13-.142.228.356.146.206a6 6 0 0 0-.146-.206m1.389 2.277c-.053-.137-.342-.692-.243-.47.017.033.228.465.242.47m-9.757 21.44c.07-.03-.285.219-.339.25-.02.014.25-.21.34-.25m-1.107-29.16c-.152-.006-.547-.02-.616-.002.186-.006.665.034.616.002M9.837 6.72c-.19.122-.467.385-.367.355.308-.288-.068.003.368-.355m15.446-4.648c-.117-.04-.22-.028-.207-.022.124.055.318.075.207.022m-8.922.563c-.014-.015-.364.135-.312.127.017-.003.322-.115.312-.127M33.39 18.54c.068-.16-.097.341-.166.48-.043.066.16-.46.166-.48M28.314 3.605c.03-.013-.486-.343-.297-.192.048.037.287.195.297.192m4.008 4.053c-.237-.33.655 1.134.445.735a12 12 0 0 0-.445-.735m1.26 2.503c-.022-.067.061-.061.129.228.009.038-.067-.127-.061-.095.008.018.186.626.19.656.011.03.023-.012.034.018.014.034.091.418.131.619.077.377.097.416.104.447.015.09.026.245.05.43.14.93.114 2.364-.03 3.082.096-.645.114-1.27.09-1.922.052.19-.08-.96.004-.288.059-.319-.488-2.973-.64-3.174zM7.42 9c.092-.144-.494.48-.513.562.078-.082.5-.546.513-.562m2.742-2.747c.058-.056.074-.154.419-.395v-.001c.102-.07.003.03.024.02.007-.004.324-.219.08-.017-.37.312-.065-.007-.264.156-.025.02-.375.36-.348.348.002-.001.109-.102.13-.115.077-.05.055-.007.066-.015.031-.027.607-.54.715-.584.03-.02-.932.798-.967.832-.025.018-.05-.031-.079-.014-.015.008-.38.362-.431.404l-.036.027c.067-.04-.27.272-.272.25 0-.012.235-.225.244-.231l.011-.008c-.065.026.739-.686.546-.555.225-.216-.005.063.162-.102m1.15-.963-.067.072c.427-.341.958-.684 1.49-1.024.135-.086-.04-.017.143-.12.147-.084.323-.154.249-.1-.019.013-.32.176-.463.271-.42.282-.295.239-.32.255-.026.019-.3.18-.441.281-.355.255-.504.385-.988.732.259-.226.083-.146.397-.367m18.968-.078c.026.002.264.264.354.355-.026-.004-.262-.267-.354-.355M8.299 32.762c.105.04-.609-.41-.43-.276.039.032.335.222.43.276m-2.913-2.34c-.083-.07.218.247.232.232a6 6 0 0 0-.232-.232M17.62 2.056c.02-.008.32-.087.33-.087.204-.028-.776.242-.33.087M2.588 26.783c.188.355-.318-.743-.183-.399.005.019.172.383.183.399m-.63-1.562c.027.092.16.5.17.503a3 3 0 0 0-.17-.503M25.393 1.997c-.034-.048.497.162.678.236.034.045-.488-.182-.678-.236m-3.507-.601c1.189.013 1.649.141 1.564.13-.084.002-.71-.097-1.706-.115-.003-.021-.008-.015.142-.015m3.017.43c-.09-.004-.35-.079-.529-.12.036-.009.4.086.529.12M9.18 33.265c-.147-.039-.714-.366-.605-.321.02.016.657.337.605.32m8.618-31.291c-.062-.02.616-.187.672-.19.216-.024-.621.162-.672.19m10.614 1.53c.119.055.393.274.573.421-.094-.052-.412-.308-.573-.421m-1.414-.884c.014.005.3.16.31.169.223.145-.582-.29-.31-.169m-2.706 27.61c-.007.006-.185.146-.192.15-.166.116.369-.304.192-.15"/><path fill="#5d0505" d="M27.6 6.681c-.022.007-.116.022-.156.031.04-.028.237-.054.156-.03m-2.972 3.01.064-.067c-.072.045-.163.115-.23.157-.011.007.006-.029-.02-.011-.024.017-.006.035-.04.063-.039.032-.23.155-.292.204-.231.184-.449.387-.673.576.213-.218-.028-.03-.085.035-.012.015.02.05-.207.25-.143.13-.067-.051-.27.206.21-.139.034.03-.097.173-.023.024-.213.218-.289.309-.026.031-.047.097-.082.139-.023.028-.053.04-.088.082q-.243.299-.478.602c.033-.167-.096.076-.105.084-.053.037.11-.191.033-.11q-.136.188-.265.38c.08-.098-.044.176-.093.207.065.017-.43.56-.463.672-.008.023.096-.092-.092.206-.02.032-.031.009-.04.027-.005.012.017.108-.051.157-.025.018.022-.164-.15.195.13-.107-.219.505-.287.62l.058-.059c-.078.106-.067.138-.08.163-.054.103-.141.24-.183.342-.05.12-.01.137-.083.267l.067-.085q-.063.138-.124.281c.037-.243-.023.047-.028.066-.01.029-.015-.021-.031.028-.002.005.021.006-.005.08-.055.156-.071.12-.096.185-.002.006.025-.007-.013.106-.117.363-.014-.008-.01-.022.003-.019-.122.071.02-.218-.047.097-.085.094-.09.105s-.066.188-.069.199c-.02.092.032.024.03.042-.002.015-.11.22-.055.294-.101.078-.042-.078.012-.256-.005-.03-.087.156-.09.165-.084.243.018.128.034.193.01.034-.062.121.018.046-.07.224-.052.08-.061.092-.014.02-.026.103-.03.112-.008.014-.009-.042-.034.013-.003.009-.004.11.049-.003-.056.157-.026.15-.093.188.062.138-.082.06-.1.101-.05.11.036.1.038.107.01.048-.11.36-.12.44-.047-.046.072-.25.076-.304.014-.176-.096.226-.13.085l.014.167c-.07.08-.053-.058-.106.196.027.052.043-.178.06-.126.011.03-.024.176-.016.182.01.006.033-.128.045-.103.024.054-.139.525-.062.154-.023.088-.093.125-.111.195a.2.2 0 0 0-.005.039c0 .025.026-.005.052-.026h.001c.021-.015.042-.023.045.012a1 1 0 0 1-.063.282c-.038.002.047-.217.046-.224-.002-.009-.093.011-.099.017-.018.024-.125.573-.201.676.06-.03-.117.41-.12.462-.001.014.043-.026.04-.011-.009.09-.139.312-.178.42-.044.12-.016.113-.018.12-.02.053-.021.005-.033.037-.016.049-.147.385-.15.403-.002.005.046-.04.023.036-.004.013-.032-.006-.105.214-.089.265.112-.165.101-.044-.114.148-.066.16-.088.204-.007.015-.096.117-.148.244q.05-.14.096-.28c-.043.086-.109.264-.149.333-.02.034-.038-.009-.071.069-.007.016.042.115.096-.103.035-.004-.025.085-.037.133-.002.007.032.053-.022.098-.014.01-.078-.198-.159.228-.002.014.035-.022.032-.008-.001.01-.054.104-.057.116s.038-.027.035-.012c-.014.076-.128.13-.056-.005l-.093.125c.077-.023-.02.08-.05.143-.196.409-.024.156-.041.234-.03.127-.076-.004-.137.175-.006.015.141-.162-.092.213l.09-.173c-.069.007-.11.207-.117.22-.079.156-.038.044-.142.282-.01.02-.048.057-.067.103-.08.189.153-.223.179-.225.014.002-.25.438-.266.45-.059.051.113-.202.057-.167-.016.013-.39.639-.487.75-.108.133-.214.152-.145.2-.096-.008-.074.058-.087.075-.16.204-.162.205-.293.386-.029.04-.074.058-.082.074-.004.01.029.01.004.054a2.8 2.8 0 0 1-.354.379c-.031.014.11-.137.067-.124-.099.113-.187.223-.29.334-.043.046-.034.011-.053.03a2 2 0 0 0-.132.174c.028-.003.464-.508.37-.358-.018.028-.127.094-.08.11q-.607.659-1.297 1.229c.238-.246.54-.486.79-.743.034-.035.153-.152.122-.153-.215.217-.478.487-.706.671-.007.006.004-.03-.024-.01-.052.04-.19.203-.223.22-.006.002.068-.096.029-.084-.1.03-.055.115-.118.167-.049.04-.405.27-.472.354-.07.092.257-.177.248-.14-.21.198-.459.35-.679.506-.004.002.041-.006-.007.03-.084.063-.122.057-.167.082-.048.027-.209.136-.236.142a.2.2 0 0 1 .02-.045c.064-.054.109-.044.115-.048.025-.014.041-.04.064-.054.037-.023.063-.027.111-.059.034-.021-.011-.018.02-.039.012-.007.168-.051.147-.102 0-.005-1.046.642-1.154.699l.284-.142c-.192.097-.397.254-.443.212-.697.373-1.423.68-2.164.922-.134.04-.072-.014-.287.064l.18-.025c-.114.032-.615.166-.695.191-.01.004-.016.034-.141.069-.11.03-.134.015-.195.026-.05.01-.105.027-.12.03-.012.002-.02-.009-.048-.004-.088.014-.009.03-.105.012l.061-.018c-.106.019-.253.034-.102-.009.026-.007.007.009.026.004.768-.19.15-.056-.116.02-.073 0-.46.09-.474.088-.02-.001.044-.026-.046-.02-.018.003-.537.1-.354.05.038-.011.288-.051.348-.064-.148-.004-.47.098-.508.102-.153.019.285-.074-.057-.023-.26.038-.012.02-.11.044-.056.014-.356.032-.343.058-.102.015-.045-.006-.058-.006-.013.001-.21.032-.276.033-.008 0 .014-.016.006-.016-.016 0-.209.022-.216.024-.005 0 .043.008.024.013-.021.005-.209.019-.218.023-.014.006.216-.017.18 0a3 3 0 0 0-.347.041 2 2 0 0 1 .155-.013c-.014.02-.235.034-.161.015-.047.01-.014.013-.04.022-.007.002-.075.006-.088.01-.002 0 .07.003.056.008a2 2 0 0 1-.25.015c-.049-.002.12-.015.133-.024.002 0-.143-.008-.146-.01-.01-.012.152-.01.132-.022l-.12-.001c.152-.02.433-.033.503-.055-.223.024-.46.036-.463.005 0-.013.095-.028.091-.03-.016-.012-.149.01-.154.01q-.006 0-.006-.002c0-.006.19-.025.2-.03.015-.007-.073-.024-.073-.029.003-.001.138-.018.09-.024-.047-.005-.166.005-.17.004-.023-.003.184-.026.19-.03.003-.002-.11-.002-.113-.005s.08-.017.113-.03c.024-.01-.05-.007-.037-.01l.214-.024c.014-.004-.033-.007-.027-.01.01-.004.072-.008.064-.01s-.253-.004-.253-.012c.002-.013.262-.013.017-.037l-.062.01c-.037-.005.149-.041-.08-.012.423-.067.051-.026.111-.056.023-.01.186-.037.187-.038-.018-.009-.068.007-.087.004-.01-.002.134-.034.1-.037-.017-.001-.171.022-.178.022-.062.001.012-.017-.002-.02-.009-.002-.103.01-.105.01-.004 0 .121-.031.147-.04.02-.007-.056-.001-.043-.005.083-.022.265-.025.089-.033-.011 0-.076.01-.078.01-.042-.003.078-.023.098-.034.035-.02-.135.015.006-.017a3 3 0 0 0-.294.04c.349-.06.465-.12.08-.054.123-.02.107-.037.143-.044.023-.004.202-.015.115-.046-.01-.004-.117.022-.085.005.257-.045.005-.009.005-.01 0-.025.628-.129.732-.158.124-.032.229-.083.255-.09.088-.021.018.01.038.009.021 0 .264-.087.277-.09.05-.008.004.02.009.02.062-.005.392-.11.484-.134-.005-.01-.19.044-.079-.007.13-.059.149-.015.153-.014a15 15 0 0 0 1.8-.667c-.018-.024-.393.162-.403.16-.058.003.585-.277.666-.308l-.186.064c.088-.08.329-.142.465-.23.044-.028-.05.003-.049.002.046-.04.134-.073.08-.023.118-.082.108-.054.206-.103.005-.003-.043.005.03-.041.035-.021.223-.125.241-.152.008-.011-.114-.012-.103.041-.214.09-.054.058-.135.1-.012.006.005-.034-.192.085.017-.067.265-.157.3-.185.076-.056-.269.104-.316.172.013-.052-.026.008-.103.045-.084.041-.052.012-.097.035-.124.062-.062.061-.175.089.13.021-.173.094-.261.113q.195-.098.389-.2h-.027l.103-.05-.012.019c.165-.113.219-.11.233-.118.184-.094.392-.211.57-.318.027-.016-.004-.028.2-.128.064-.033.017.022.085-.024.058-.107.079-.065.105-.081.073-.048.11-.09.117-.095.088-.061.22-.148.315-.219.002-.002-.058.018.007-.021.023-.014.265-.087.418-.239q-.07.045-.141.086c.058-.03.4-.328.3-.278-.06.032-.16.177-.203.146.133-.073.749-.628.799-.667.008-.005-.021.046-.01.039.008-.005.144-.137.166-.15.014-.006-.04.059-.031.059.008 0 .184-.158.179-.184-.036.047-.16.154-.11.08.007-.009.057-.037.065-.049.071-.106-.191.155-.235.193.153-.178.433-.406.603-.615.088-.066-.09.137.005.06.2-.164.029-.069.032-.076.03-.06.25-.147.193-.203.07-.06.058-.03.137-.137l-.046.028c.062-.14.345-.298.337-.274-.02.064-.152.161-.16.172-.013.016.01.116-.19.232-.022.107.26-.24.153-.062.09-.105.477-.517.506-.598.003-.01-.067-.01.04-.102.05-.044-.046.083-.018.067.099-.04.804-1.101.913-1.319.008-.013.02.001.028-.012.024-.04.089-.204.138-.274-.117.136.05-.162.094-.236.068-.113.092-.09.125-.138.13-.184.21-.52.35-.646-.07-.023.156-.251.214-.38.045-.102.063-.266-.022-.143.078-.17.14-.359.202-.527.01-.027.016.018.032-.03.002-.003-.016-.017-.003-.057.11-.335.09-.16.126-.217a1 1 0 0 0 .041-.075 20 20 0 0 1-.17.48c.065-.035.157-.429.21-.538.001-.003.02.02.022.015.018-.042.103-.311.055-.267a2 2 0 0 0-.107.281c.01-.041-.029-.022-.027-.03.017-.09.117-.284.145-.357.007-.016-.011-.021-.01-.024.026-.065.068-.02.039-.107.104-.1-.068.23-.02.22.042-.005.279-.793.224-.807q.009 0 .03-.03c.033-.043.092-.267.093-.306 0-.007-.05-.018-.048-.026.005-.02.118-.277.115-.387l-.065.158c.088-.33.06-.284.016-.177l-.007.016c-.033.082-.074.187-.078.188-.01.001.04-.204.081-.34v-.001c.03-.096.057-.16.063-.109 0 .008-.017.066-.031.117-.017.061-.029.112.009.044l.012-.038c.016-.063.039-.168.043-.174.024-.033.01.085.003.185v.001c-.004.07-.005.129.015.114a.4.4 0 0 1 .008-.108c.014-.073.04-.148.053-.22.01-.051-.012-.07-.01-.076.018-.094.03-.035.038-.066.004-.017 0-.212.066-.156.119-.608-.012-.18-.108.185.004-.124.081-.342.106-.447.009-.037-.023-.023-.01-.086.027-.132.252-.72.316-.873-.025.099.012.08.036.006.025-.073-.033-.025-.032-.04 0-.017.144-.353.163-.413-.086.264-.037.215.05-.003l-.014.104c.038-.134.184-.384.202-.46.003-.013-.036.02-.034.012.016-.067.132-.277.129-.29-.003-.011-.061.074-.055.036.001-.008.069-.086.1-.176.012-.034-.017-.023-.015-.032.02-.072.037-.017.088-.143.037-.092.035-.177.106-.297-.237.395-.057.053.014-.123.012-.029-.037-.023.063-.177-.107.377.081-.08.132-.173.003-.005.027.005.05-.04.003-.003-.016-.006.005-.048.197-.395.081-.137.136-.202.023-.028.106-.228.135-.279.007-.011.02.003.045-.042.044-.08.069-.16.099-.212.003-.006.028.008.079-.094.014-.028.024-.065-.007-.03-.102.114-.206.385-.314.523-.099.125.143-.307.157-.328.005-.008-.032.082.02-.001.045-.07.08-.225.156-.326a.6.6 0 0 1 .094-.066c0 .005-.074.14-.052.127.003-.002.054-.085.069-.09.018-.008.132.013.145-.003.034-.041-.005-.025.014-.053.043-.06.208-.253.182-.28l-.075.1c.126-.195.058-.121.07-.153.014-.034.036-.008.083-.07.01-.015.194-.287.18-.29-.088.16-.082.083-.087.09-.021.024-.026.07-.05.104-.176.247-.032-.024-.08.03-.017.019-.029.07-.035.078-.022.026-.043.013-.054.033-.026.046.038.014.037.019-.008.051-.133.189-.102.073-.05.05-.014.082-.06.117-.091.07.006-.06.025-.1.07-.143.111-.174.235-.361.045-.067.083-.157.104-.188.013-.02.211-.155.117-.231.062-.063.21-.123.263-.194.047-.065-.003-.071 0-.078.006-.01.07-.085.087-.114.019-.034-.006-.03.028-.081.085-.128.117-.097.13-.107.143-.117.044-.096.066-.13.02-.033.394-.408.462-.496l-.075.115c.075-.04.103-.132.139-.1-.045-.064.11-.149.144-.185.014-.015.003-.022.02-.04.067-.07.233-.213.267-.253.147-.175-.311.19-.344.222.063-.065.434-.432.233-.294-.032.021-.056.09-.07.105-.096.103-.037.006-.047.011-.017.01-.063.094-.083.109-.006.005.011-.05-.085.043.027-.066.317-.311.35-.348.012-.013-.11.02.17-.156l-.02-.004q.202-.181.41-.354c-.007.021-.07.102.026.019.055-.049-.004-.034 0-.039.04-.057.988-.736 1.185-.846.064-.042.235-.169.25-.177.081-.052.387-.212.447-.246.037-.021-.01-.019.025-.036.032-.016.009.017.018.013.079-.04.661-.357.814-.402-.091.033-.505.274-.489.283.003 0 .113-.04.132-.056.043-.004.142-.105.214-.128.008-.003-.01.034.112-.017.042-.018.14-.085.26-.112.151-.087 1.01-.378 1.06-.415.002-.002-.122.03-.045-.007.104-.05.024.027.151-.011.019-.007.369-.122.38-.127.099-.057-.215.027-.211.023.008-.01.264-.092.275-.093.01-.001-.188.092.06.006l-.09.014c.115-.042.134-.023.163-.03.09-.02.177-.08.334-.077.042.001-.018.029-.012.03.05.002.096-.051.173-.04.006.001-.148.057.13-.011l-.06.005a5 5 0 0 1 .359-.09c.113-.02.02.018.131-.007-.078-.011.262-.083.248-.057.04-.037.337-.069.473-.09.086-.013.26-.05.288-.052.034-.003.027.015.088.01.017-.001.194-.037.355-.038.031 0 .1.019.045.032-.095.023-.282.025-.277.041.006.017.25-.026.318-.03.308-.026.134.012.143.017.022.01.188-.009.196-.008.03.002-.087.025-.088.033 0 .01.163.01.127.018-.051.01-.2.013-.21.015-.119.025.05.028.098.034.014.002-.04.014-.028.014.178-.006.032-.038.149-.048.105-.009-.027.021-.023.022.005 0 .13-.013.15-.01.01 0-.308.07-.292.082q.153-.025.307-.047c.01.016-.14.021-.155.025-.03.007.057.005.055.011-.002.004-.1.03-.009.022.032-.002.095-.022.212-.023-.395.064-.119.04-.106.044s-.175.043.054.01c.015.032-.003.012-.067.026-.079.018.106.003-.185.036.019.014.252-.02.265-.02.01-.001-.04.014-.022.014.224 0 .071.006.137.016.006.001.212-.02.056.004-.285.044-.407.042-.447.098.212-.015.465-.081.528-.09.098-.013-.002.01.01.01.004 0 .089-.011.09-.01.064.024-.376.051-.512.08l.112-.001-.149.025c.239-.028.009.002-.045.042-.012.009.14-.03-.033.02.131-.018.09-.005.207-.033-.001.011-.264.07-.366.098.369-.055.152-.06.476-.092.057-.024-.096.003-.083 0 .043-.017.151-.021.273-.068.02-.008-.07-.01.06-.028.014-.002.098 0 .097 0-.01.011-.091.02-.094.024s.088-.011.088-.01c.005.011-.075.015-.063.017.026.005.355-.018-.072.038.353-.066.043-.021-.093.006-.035.007-.043.015-.093.026-.064.014-.14.023-.173.03-.035.009.17-.01-.123.038.15-.01.414-.074.561-.084.3-.022-.202.061-.254.075-.014.003.035.005.025.007-.015.003-.3.05-.326.065s.103-.02.114-.013c.006.004-.332.083-.147.05.126-.023.359-.09.402-.072q-.281.054-.56.116l.31-.032c-.208.045-.39.072-.584.134.48-.076-.15.062-.154.07-.002.003.189-.014.22-.016-.163.048-.655.189-.359.146a.7.7 0 0 0-.174.063c.02.011.293-.076.251-.05-.049.032-.127.03-.206.054-.406.13-.274.183-.678.305l.026.001q-.654.218-1.28.49c-.151.101-.566.327-.769.434a8 8 0 0 1-.265.119c-.03.01.121-.077.047-.05-.016.005-.354.189-.32.194.038-.02.15-.096.171-.103.144-.054-.875.539-.907.595l.075-.025q-.094.058-.188.117m2.654-2.893c.044-.027.17-.043.241-.062.099-.029.252-.121.195-.047q-.218.05-.436.11m-2.116.637c.1-.028.044.04-.041.056-.01.002-.094-.017.04-.056m1.012-.343-.091.028c-.08.009.172-.068.09-.028m-4.51 2.522c.085-.076-.011-.059-.052.003-.002.004.046.002.051-.003m.062-.052c.097-.025.177-.204.073-.107a1 1 0 0 0-.073.107m3.782-2.243c-.006.016-.106.047-.15.06-.003-.01.11-.044.15-.06m-2.4 1.194c.003.011.318-.183.332-.208-.047.035-.334.196-.331.208m-.772.553c.009-.004.11-.083.1-.09-.06.026-.14.107-.1.09m-1.432 1.24c-.002.006.121-.01-.076.118-.029.02.04-.08.03-.073a.3.3 0 0 0-.048.037c.07-.08.146-.16.157-.165.051-.02-.061.079-.063.082m-.63.767a.7.7 0 0 1-.123.148c-.004.004-.016-.036-.054.014-.03.04.045.004-.022.077s-.003-.045-.01-.04c-.01.008-.093.137-.106.121-.01-.011.102-.134.125-.167.03-.043-.03-.01.03-.073.038-.04.053.01.062.003.008-.007.112-.168.098-.082m.517-.663.019-.022zm6.209-3.531c-.054.004.094-.045.154-.047a1 1 0 0 1-.154.047m-6.252 3.625c-.116.107-.049.013.043-.094-.025.037-.004.059-.043.094m3.564-2.64q-.01.002-.017-.006c.02-.001.023.002.017.007m-.33.156c-.1.077.124-.043.115-.054a1 1 0 0 0-.115.054m-2.43 1.688c.01-.006-.075.164.083-.046-.11.085-.006-.017-.012-.02-.017-.01-.18.156-.223.186-.008.05.117-.1.15-.12zm-2.363 2.782c0-.037.06-.116.099-.171 0 .037-.06.116-.099.171M11.57 26.267c.314-.252.395-.226.084-.03-.006.005-.1.05-.084.03m2.48-2.353c.05-.006-.023.095-.086.15-.014.012-.084.04-.04-.024.03.03.12-.053.126-.126m6.659-13.33c-.014.048-.122.14-.175.193.016-.046.124-.15.175-.193m-8.09 14.886c.032-.026.035-.067.028-.064-.03.013-.075.084-.029.064m8.41-15.21c.015.005-.107.146-.141.133.03-.027.132-.136.142-.133m-1.755 2.131c.022-.02-.049.111-.08.145-.012-.011.065-.132.08-.145m-6.17 12.604c.03-.025.095-.091.095-.107-.002-.02-.094.081-.094.107m-6.177 3.463a1 1 0 0 1 .204-.076c.127-.024-.198.078-.204.076m5.398-2.714c-.108.055.01-.01-.012-.028-.061.05-.217.176-.094.11.024-.012.076-.06.106-.082m.09-.064c.004-.016.052-.094-.003-.044-.026.023-.049.084.003.044m-4.585 2.502c.11-.018-.378.128-.392.128H7.42c-.017.011-.11.04-.123.03l.113-.032h.008c.03-.02.39-.122.41-.127m.796-.266c-.11.07-.144.035-.135.03.123-.067.05-.003.054-.003.01-.001.096-.051.08-.027m-.63.218-.11.035c-.087.014.199-.079.11-.035m11.854-16.45c-.057.063-.028-.019.014-.058.004-.003.037.002-.014.057m-7.394 13.953c.017-.007.353-.286.31-.296-.023.03-.407.344-.31.296m2.17-2.418c-.044.063-.027-.028.008-.054.013-.01.003.038-.008.054m6.606-13.111c.053-.077.085-.019.012.02-.003.002-.014-.017-.012-.02M14.25 23.704c.14-.227.197-.102-.044.147l.008-.036c-.26.303-.022.017.031-.064.02-.031-.013-.019.005-.047m.602-.821c.208-.168-.1.212-.174.334.05-.133.152-.278-.011-.098.189-.296.134-.155.145-.166s.031-.063.04-.07m-.378.557c-.007.013-.086.094-.107.128.011-.063.15-.217.107-.128m-5.046 4.122c-.003.018-.02.039-.104.07.022-.018.072-.048.104-.07M27.395 6.847c.066-.015.2-.04.155-.044a1 1 0 0 0-.155.044M13.382 24.773c.012-.006.238-.25.144-.182-.027.02-.233.244-.144.182m-1.271 1.166c.022-.017.108-.092.107-.097-.003-.017-.106.077-.107.097M27.73 6.786c.009 0 .21-.043.186-.045-.045-.004-.217.047-.186.045M19.71 11.96c-.01.015-.043.02-.047.024-.01.011-.188.281-.143.162.006-.02.29-.39.33-.436.042 0-.104.141-.13.183-.004.007.016.028-.01.067M9.002 27.766c-.006.02-.321.156-.323.138a14 14 0 0 0 .323-.138m.16-.066c.072-.02-.085.052-.133.067a.7.7 0 0 1 .134-.067m3.478-2.113c.022-.026-.073.02-.059.001.01-.012.072-.054.084-.076.004-.007-.07.024-.086.04-.023.021.013.017-.013.04-.085.075-.17.129-.253.197-.007.007.06-.03-.004.022-.01.009-.082.04-.156.105-.133.187-.296.234-.508.415.012 0 .188-.11.198-.117.193-.129.518-.387.701-.546.047-.04.016-.032.035-.05.016-.014.013.023.06-.031M27.363 6.864c.036.01.143-.026.214-.04-.03-.01-.144.028-.214.04m-16.829 20.17c.028-.018.12-.063.124-.073.005-.013-.125.056-.124.072m8.193-13.544-.047.082c-.06.058.072-.172.047-.082m-.907 1.906c-.021.063-.037.13-.069.141.02-.038.055-.155.069-.141m-.864 2.724c.035-.003-.034.166-.047.198-.01-.016.02-.195.047-.198m-7.493 9.5c-.102.044-.069.065-.139.08-.012.002-.07-.045.052-.072.021-.005-.052.046.087-.009m4.707-3.726c-.002.035-.06.1-.099.144-.003-.02.074-.11.099-.144M28.098 6.728c.06.004.313-.052.248-.051-.01 0-.21.044-.248.05m-7.537 4.149c-.057.097.102-.07.135-.137-.022.025-.13.13-.135.137m-3.418 6.61c0 .005-.032.116-.035.12-.05.085.042-.23.035-.12m.983-2.714c.001.046-.123.292-.165.342-.005-.067.163-.4.165-.342m-8.251 12.64q-.106.054-.209.092a1 1 0 0 1 .209-.091m7.165-9.526-.007.016zm-5.633 8.645c.057-.033.034-.046.03-.044-.045.022-.095.08-.03.044M27.451 6.87c.029.01.145-.03.214-.04a1 1 0 0 0-.214.04M15.043 22.68c.068-.055-.082.249-.137.296-.017-.005.128-.288.137-.297m5.78-12.033c.02.008.111-.123.081-.105-.02.012-.094.1-.081.105m-6.02 12.462c-.012.03-.07.08-.065.05.005-.036.069-.057.066-.05m-1.798 2.165c.012-.007.132-.15.065-.111-.047.027-.035.053-.044.062-.01.01-.248.188-.02.049m2.94-4.24c-.022.068-.066.138-.098.206a.6.6 0 0 1 .098-.206m4.471-9.926c.017-.01.37-.399.152-.193-.013.012-.209.221-.152.193M10.59 27.046c-.017.023.097-.039.126-.063.004-.019-.123.06-.126.063m5.275-5.79c-.01.042-.053.108-.075.155-.01-.014.053-.145.075-.155m1.073-2.79c-.033.08-.059.182-.042.19q-.005 0-.012.009c-.005.006-.024.095-.041.131-.103.218.24-.887.1-.228zm1.382-4.014c.042-.039.082-.185.058-.154-.018.022-.101.193-.058.154m-.747 1.895a.5.5 0 0 0 .031-.163c-.04.074-.072.226-.031.163m.948-2.25c.018-.029.006-.082.002-.08-.026.025-.044.12-.002.08M9.698 27.58a.7.7 0 0 0 .189-.12.2.2 0 0 0 .05-.011c.043-.003 1.065-.554.368-.21-.022.012.014.01-.075.053-.006.003-.014-.006-.033.003-.041.02-.266.127-.307.157q-.002-.003-.012-.001c-.061.012-.214.139-.18.128m7.788-10.962c.015-.025.038-.114.026-.128-.021.04-.06.187-.026.128m2.985-5.486c.048-.038.131-.167.093-.14-.025.018-.148.184-.093.14m-2.69 4.615c-.135.312-.026.076-.023.133q.01-.067.024-.133M8.346 28.096c.048-.014 0 .03-.056.035-.018.002.03-.027.056-.035m-2.192.617c.045.008-.164.04-.085.013zm1.547-.387c.03-.024.05-.032.143-.058-.135.047-.005.02-.143.058m9.2-9.67h-.004zm1.763-4.85c.039-.027.094-.133.058-.112-.004.002-.065.09-.058.113M9.887 27.462q-.008 0 .003-.008.002.002-.003.008M18.39 14.39c-.013-.011-.097.152-.098.16-.018.107.067-.092.098-.16m2.927-4.128c.006-.008-.065.008-.081.045-.012.028.06-.017.081-.045M7.387 28.424a.5.5 0 0 1-.139.028c.035-.008.14-.036.14-.028m-1.15.284c.06-.023.202-.055.292-.074.004.015-.234.059-.293.074m3.327-1.075c.005 0 .128-.05.106-.056-.032-.008-.142.065-.106.056m11.538-17.186c-.036.055.098-.024.124-.094.014-.036-.118.084-.124.094m-2.236 3.045c.03-.08-.091.094-.085.13.02-.034.074-.102.085-.13m-1.16 2.648c.15-.23-.01-.132-.016-.084 0 .007.013.09.016.084m11.052-9.457c.036-.01-.105-.005-.12.009-.01.008.097-.003.12-.009M16.538 19.79l.01-.029zm2.794-6.924c-.175.116-.106.135-.115.148-.02.03-.082.088-.113.148q.045-.105.093-.212c-.039.047-.333.487-.324.506.01.023.086-.125.09-.128.006-.005.069 0 .078-.012.015-.022.24-.397.291-.45m-1.442 2.748c-.022.037-.048.04-.05.061 0 .008.02.016.017.04q.016-.051.033-.101m1.559-3.075c.05-.031-.089.165-.095.17-.037.026.053-.145.095-.17m-1.002 1.778c.005-.008.094-.169.08-.174-.032.038-.142.259-.08.174m-.6 1.426c-.025.06-.088.166-.051.164zm3.145-5.092c.119-.056.035-.055-.05.013-.006.037.03-.004.05-.013m.296-.252c.028-.019.27-.265.216-.245-.02.006-.148.16-.155.165-.012.008.014-.055-.058.023.01.002-.013.063-.003.057m-.204.2c.11-.062.08-.126.017-.062-.025.026-.033.07-.017.062m-.336.354a.7.7 0 0 0 .154-.18q-.11.115-.218.233c.002.017.034-.028.064-.053M5.586 28.91c.089-.006-.114.03-.124.028-.026-.002.084-.025.124-.028m23.936-22.02c.026 0 .044.01.098-.005l-.17-.002c-.039.027.044.007.072.007m.222.042c-.008.002.04.026-.064.021-.07-.004.298-.072.366-.067-.072.016-.236.032-.302.046m.66.034a2 2 0 0 1-.15.026c-.086.003.126-.035.15-.026m-.443.06c.066-.004-.078.023-.122.027a1 1 0 0 1 .122-.026M6.549 29.209c.075.012.13-.045.022-.02-.005.002-.026.02-.022.02M30.27 7.013c-.066.004.078-.02.122-.024a1 1 0 0 1-.122.024M6.608 29.253c.098.003.055-.046.043-.046a2 2 0 0 0-.25.05c.252-.04.16-.006.207-.004m.435-.1c.087-.02-.14.007-.181.028.044-.007.156-.021.181-.027m.54-.078c.048-.007.189-.03.21-.046-.051.013-.192.032-.21.046m.113.007c.077-.002.086-.044.004-.015-.004.001-.006.014-.004.015m.42-.076c.053.004.098-.047.02-.03-.024.006-.025.03-.02.03m-1.378.288c.072-.004.158-.04.007-.021l.157-.034c-.2.016-.18.045-.237.052-.079.008-.077-.019-.062-.03-.062.026-.336.06-.496.078.141-.008.37-.023.508-.036.04-.004.077-.016.11-.02.055-.006.009.011.013.011m1.923-.423c.147-.02.046-.035-.032-.007-.003.002.029.008.032.007M30.468 7.069c-.189.019-.056-.022-.442.07.16-.046.007-.014.038-.027.025-.01.122-.021.064-.023.075 0 .396-.054.41-.054.009 0-.01.028-.07.034M7.605 29.17c.058.035.06-.038.163-.02.113-.078-.346.066-.414.03.515-.087-.349.018.024.019-.301.027-.095.024-.14.04-.047.017-.216.033-.204.047q.153-.024.307-.052c-.108-.017.104-.042.181-.027zm-.586.066c.01 0 .231-.04.216-.045-.03.001-.344.055-.216.045m-.981.128c.08-.007.206-.014.248-.03-.08.009-.207.016-.248.03m4.068-.92c.092-.05-.21.059-.117.042.004-.001.112-.04.117-.043m-2.272.674c.107-.007.047-.04-.026-.014-.005.002.021.015.026.014m22.482-22.02c-.006.01-.276.05-.323.06.025-.014.33-.07.323-.06M5.901 29.407c.163.018.377-.039.4-.041s-.01.016-.005.016c.012 0 .264-.029.276-.032.009-.002-.04-.017.01-.03-.097.026-.562.066-.584.069-.019.003.123.011-.097.018m.46-.043c-.064-.001.113-.022.156-.024.096-.004-.147.024-.155.024m.427-.043c.02 0 .203-.024.216-.036-.088 0-.263.038-.216.036m2.01-.398c.045-.014.176-.04.18-.053-.046.015-.177.04-.18.053M29.41 7.346c.076-.01-.096.032-.147.04a1 1 0 0 1 .147-.04M7.874 29.206c.03 0 .595-.129.674-.156-.08.014-.642.135-.668.14-.007.003-.01.016-.006.016m-1.237.193c-.05.018-.087.007-.093.008-.065.005-.2.021-.172.007.116-.006.365-.051.265-.015m2.222-.417c.19-.056-.183.024-.13.027.004 0 .11-.021.13-.027m-1.048.24c-.038.022-.615.108-.706.118.079-.031.147-.026.258-.045.03-.005.02-.012.024-.012.051-.01.015.007.047.002.02-.002.433-.09.377-.063m-1.202.189a5 5 0 0 1-.404.047c-.11-.002.376-.045.404-.047m1.26-.18c-.057.037-.344.07-.152.024.018-.005.098-.008.151-.024m.978-.218c.009-.001.211-.05.212-.06-.03.006-.322.08-.212.06m-.095.055c.004-.002-.048-.006.047-.028.008-.002.028.014.144-.024a.2.2 0 0 0 .054-.03c-.132.005-.486.151-.245.082m-2.148.355c.02.005-.023.028-.067.023-.018-.002.014-.017.067-.023m2.878-.582c-.11.05.254-.06.27-.07a3 3 0 0 0-.27.07M29.254 7.475c-.093.021-.038-.003-.042-.002-.2.036-.143.045-.173.056-.064.023-.058-.008-.167.034.18-.067.014-.014.007-.023-.028-.035.247-.046.337-.077.013-.005-.084.007-.052-.005.105-.038.447-.06.09.017M6.505 29.451c-.044.016-.397.036-.305.02.015-.002.37-.042.305-.02m12.15-10.223c-.006.089.078-.096.073-.136-.003-.02-.07.097-.073.136m.459-1.3c.02-.09-.039-.21-.057-.094-.002.013.042.102.057.094m-2.791 6.144c.088-.071.04-.097-.007-.032-.016.023.004.034.007.032m1.956-3.65c.006-.01.047-.128.033-.129-.024.041-.072.19-.033.129m-1.97 3.682c.03-.057-.068.01-.084.096.021-.034.081-.09.084-.096M8.1 29.256c.048-.022.195-.049.278-.07.014.016-.219.056-.278.07M18.975 18.31c.004-.1-.067.098-.034.087.002-.002.034-.083.034-.087m-5.079 8.322c.047-.056-.146.07-.08.052.004-.001.078-.049.08-.052m-.81.585c.048-.025.238-.16.155-.12-.013.007-.16.107-.156.12m15.95-19.676c.029.008-.121.045-.144.048-.009.001.106-.06.144-.048M16.731 23.49c.028-.05.113-.169.113-.2-.034.061-.15.198-.113.2m2.127-4.752c.057-.071.092-.213.039-.19-.04.155.045-.008-.039.19m-2.742 5.678c.03-.034.019-.086.014-.083-.044.029-.054.11-.014.083m1.727-2.924c.019.004.071-.13.052-.117-.006.004-.066.112-.052.117m-7.942 7.296c.066-.01-.12.062-.18.068-.034-.008.172-.066.18-.068m5.388-3.416c.014.022.158-.155.082-.103a.4.4 0 0 0-.082.103m-1.605 1.484c.106-.112-.422.254-.266.18a5 5 0 0 0 .266-.18m-.872.584c.024-.012.055.055-.054.09-.014.004.032-.047.02-.044a7 7 0 0 0-.224.124c-.009.007.016.02.007.028-.01.01-.147.067-.213.104-.125.071-.129.094-.14.1-.03.017-.087.033-.148.066-.307.17-.784.411-1.055.485.232-.084.438-.196.655-.31-.046.066.307-.19.103-.036.104-.051.976-.56 1.049-.607m6.427-9.858c.014.064.091-.22.063-.255a2 2 0 0 0-.063.255m-.305 1.395c-.003.03.049.077-.028.221-.023.043-.022-.013-.03-.006-.003.002-.075.132-.044.015.046-.178.05-.003.079-.097a1 1 0 0 0 .014-.191c-.002 0-.01.055-.016.064-.021.03-.035.008-.037.013-.007.015-.06.306-.102.338a6 6 0 0 1 .116-.473c.006-.01.057.01.066 0 .004-.006.037-.196.048-.22l.009-.014c-.024.023.023-.145.04-.135a.6.6 0 0 1-.032.124l-.003.004c.027-.018-.085.372-.032.296-.017.117-.038-.028-.047.061m-.137.555-.005-.04c-.05.199-.156.424-.237.647-.02.057.036.003 0 .074-.03.057-.085.113-.08.078.002-.01.067-.123.087-.185.059-.182.014-.147.017-.157.003-.012.063-.12.084-.183.052-.16.058-.234.149-.443-.021.13.042.075-.015.21m-4.143 6.572c.005.017-.107.1-.143.134-.005-.017.108-.099.143-.134m9.489-16.1c.015-.043-.205.122-.136.094a2 2 0 0 0 .136-.095m-.943.79c-.022.03.097-.056.084-.071a.5.5 0 0 0-.084.071m-5.457 11.226a2 2 0 0 1-.065.11c-.063.055.126-.277.065-.11m4.466-10.112c.067-.11-.18.18-.09.105.005-.004.087-.1.09-.105m-.325.42c.017-.025.106-.126.101-.133-.01-.01-.11.106-.101.133m-5.7 12.176c.036.006-.112.155-.156.214-.035-.007.114-.154.156-.214m.784-1.06c-.469.745-.414.546.014-.053.02.01.015.005-.014.052m-.651.92c.003-.037.068-.114.11-.167.004.018-.084.127-.11.168m8.107-14.527c-.026.045-.208.15-.183.12.005-.007.19-.141.183-.12m-6.688 12.26c.039-.003-.095.226-.112.24-.064.059.109-.217.112-.24m-2.349 3.374c-.014.05-.115.137-.176.198.013-.04.126-.146.176-.198m.43-.447-.088.096c-.082.059.144-.191.087-.096M29.401 7.558l-.085.022c-.072.007.165-.053.085-.022"/></svg>