<svg xmlns="http://www.w3.org/2000/svg" width="36" height="36" fill="none" viewBox="0 0 36 36"><path fill="#cca68c" d="M31.5 15.75c0 9.69-10.012 16.596-12.792 18.327a1.32 1.32 0 0 1-1.416 0C14.513 32.346 4.5 25.439 4.5 15.75c0-7.456 6.044-13.5 13.5-13.5s13.5 6.044 13.5 13.5"/><path fill="#fff" d="M24.707 17.867a5.4 5.4 0 0 0 .654-4.035c-.683-3.123-4.468-4.398-6.825-2.306-.187.165-.352.355-.536.544-.184-.19-.35-.38-.536-.544-2.357-2.092-6.142-.817-6.825 2.306a5.4 5.4 0 0 0 .655 4.035c1.194 1.935 3.067 3.472 4.947 4.86a2.97 2.97 0 0 0 3.518 0c1.88-1.388 3.753-2.925 4.947-4.86"/><path fill="#5d0505" d="M29.26 22.2c-.023.05-.129.24-.174.322.036-.101.259-.497.174-.321m-4.931 8.783.17-.185c-.177.162-.401.375-.57.52-.028.023.03-.053-.035.003-.063.057-.035.065-.125.15-.098.093-.59.499-.754.636a31 31 0 0 1-1.929 1.535c.663-.521-.024-.03-.217.12-.044.032.003.07-.705.55-.456.303-.075-.04-.813.494.48-.268.232-.094-.109.129a2.3 2.3 0 0 1-.562.263c-.065.02-.337.104-.68.105a2.45 2.45 0 0 1-1.267-.361c-.087-.052-.274-.134-.391-.206-.086-.053-.154-.114-.282-.195a31 31 0 0 1-1.788-1.217c.383.185-.248-.218-.278-.247-.128-.118.51.341.268.149a39 39 0 0 1-1.04-.774c.276.226-.414-.243-.511-.357 0 .102-1.477-1.313-1.708-1.516-.05-.042.234.275-.473-.41-.076-.075-.032-.062-.074-.1-.024-.022-.219-.116-.347-.294-.046-.068.34.266-.454-.513.253.369-1.088-1.093-1.3-1.398l.121.184c-.217-.29-.276-.326-.328-.39-.209-.257-.472-.623-.662-.867-.22-.286-.256-.26-.49-.61q.075.129.154.258a24 24 0 0 1-.502-.716c.432.521-.081-.12-.11-.166-.05-.07.038.02-.045-.1-.008-.011-.016.02-.14-.166-.257-.388-.192-.343-.296-.508-.01-.016.005.05-.174-.239-.555-.924.014-.001.04.03.033.044-.093-.308.364.48-.156-.263-.139-.31-.157-.34l-.306-.503c-.14-.22-.049-.008-.078-.05-.026-.033-.306-.61-.44-.71-.078-.305.132.13.394.573.048.059-.212-.442-.224-.469-.335-.645-.2-.262-.307-.387-.055-.067-.15-.353-.076-.082-.295-.598-.091-.247-.106-.287-.023-.062-.134-.267-.144-.294-.015-.04.063.088 0-.069-.011-.026-.15-.262-.02.065-.188-.431-.194-.387-.207-.554-.217-.262-.033-.24-.074-.36-.109-.32-.147-.202-.157-.217-.072-.104-.35-1.008-.419-1.23.078.073.222.714.284.848.194.448-.193-.66-.011-.347q-.097-.202-.19-.407c-.03-.275.09.094-.118-.61-.07-.105.141.5.078.384-.04-.067-.152-.478-.163-.485-.014-.004.097.365.065.311-.084-.117-.354-1.497-.097-.459-.061-.251-.035-.41-.076-.611a1 1 0 0 0-.023-.094c-.018-.06-.019.034-.025.103-.006.06-.016.1-.047.01-.028-.088-.078-.294-.138-.725.029-.035.102.557.11.571.009.02.07-.1.07-.119-.013-.062-.25-1.487-.209-1.8-.031.093-.057-.565-.05-.96.002-.13.004-.23 0-.264-.003-.035-.034.096-.037.059-.018-.237.067-.872.1-1.164.035-.328.008-.29.01-.308.018-.144.02-.027.032-.115.008-.134.166-1.044.179-1.088.001-.014-.057.128-.022-.07.008-.034.028-.009.155-.59.164-.7-.163.474-.123.176.16-.437.112-.434.149-.555.013-.042.141-.34.251-.675q-.11.362-.202.728c.072-.237.208-.697.285-.886.037-.092.042-.004.114-.206.017-.043-.005-.244-.157.302-.043.033.063-.215.099-.335.005-.018-.017-.106.07-.244.026-.031-.008.402.313-.625.011-.033-.054.07-.044.037.006-.022.127-.27.138-.298.01-.029-.064.083-.052.048.062-.18.241-.37.068-.021q.096-.17.197-.339c-.116.099.076-.19.16-.35.553-1.012.143-.357.222-.54.138-.291.095-.031.322-.449.024-.036-.336.415.31-.502q-.14.204-.273.414c.098-.05.33-.497.354-.528.253-.36.087-.112.466-.645.035-.047.126-.138.2-.238.31-.416-.448.516-.477.536-.029-.002.797-1 .842-1.02.142-.125-.381.446-.26.355.023-.052 1.286-1.39 1.596-1.597.333-.266.532-.322.481-.39.146-.01.195-.117.239-.15.532-.382.535-.38 1.003-.691.104-.068.207-.101.242-.127.02-.016-.034-.014.07-.085.138-.107 1.076-.572 1.156-.584.076-.022-.392.2-.298.18a14 14 0 0 1 1.007-.465c.146-.059.077-.013.14-.038.025-.013.525-.217.502-.213-.064-.017-1.59.657-1.2.457.075-.042.364-.128.302-.15a14.3 14.3 0 0 1 4.32-1.09c-.845.113-1.797.264-2.657.524-.118.033-.515.158-.46.164.724-.24 1.645-.47 2.368-.562.024-.003-.058.03.029.02.163-.022.684-.115.775-.113.015 0-.282.057-.189.064.239.017.289-.081.49-.095.13-.013.866-.018 1.269-.012q.132.001.204-.004c.124-.009-.016-.02-.204-.026-.234-.008-.539-.004-.496-.019q.247-.012.496-.01c.553.004 1.098.059 1.612.123.012.001-.088-.03.062-.014.26.031.324.069.45.093.134.025.612.114.673.138a1 1 0 0 1-.108.006c-.208-.032-.276-.077-.295-.082-.071-.014-.143-.014-.208-.026-.107-.019-.164-.04-.305-.062-.098-.015-.006.021-.1.007-.034-.007-.405-.106-.444-.055.002-.058 3.006.602 3.273.779a14 14 0 0 0-.745-.265c.509.164 1.122.359 1.143.432 1.839.73 3.51 1.85 4.878 3.252.24.256.088.135.48.555q-.137-.177-.278-.35c.21.21 1.026 1.227 1.142 1.403.016.022.063.035.249.302.164.239.171.29.25.422.068.111.147.233.166.266.015.026.01.042.045.104.107.197.045.023.123.235l-.085-.138c.131.236.29.568.093.225-.035-.059.003-.014-.022-.058-1.046-1.695-.201-.345.138.263.08.162.517 1.062.52 1.098.014.044-.065-.108.013.103.031.039.492 1.291.311.846a21 21 0 0 0-.321-.833c.118.344.441 1.129.463 1.223.112.368-.251-.696.009.132.184.64.03.033.109.277.049.136.202.876.22.85.056.253.01.108.016.14.007.03.107.528.123.693.002.02-.02-.04-.019-.019.007.04.072.525.073.544.002.013.001-.105.01-.058.01.055.051.527.054.551.01.037-.046-.544-.025-.448.027.268.064.702.079.88-.004-.044-.018-.304-.023-.394.024.04.047.6.025.41.012.12.013.037.022.106.003.018.007.19.01.223.001.004.005-.174.009-.138.01.063.008.588.003.631-.007.121-.005-.307-.014-.342 0-.005-.018.358-.02.364-.013.021 0-.383-.013-.336l-.01.3c0-.386-.024-1.097-.057-1.277.05.567.042 1.163.01 1.162-.012 0-.021-.245-.025-.235-.01.036.002.376 0 .389l-.003.015c-.005 0-.01-.485-.016-.508-.006-.04-.027.175-.032.175 0-.008-.015-.35-.021-.234-.005.117-.003.417-.005.428-.003.056-.015-.468-.022-.482-.001-.009-.004.272-.008.28-.002.008-.013-.206-.026-.289-.01-.062-.008.12-.01.088 0-.022-.025-.516-.03-.54-.005-.035-.005.08-.009.064-.004-.024-.013-.183-.015-.162.002.015.007.634-.003.63-.012-.006-.016-.659-.037-.051l.009.155c-.007.09-.036-.38-.017.196-.056-1.068-.022-.132-.05-.29-.01-.06-.04-.474-.043-.475-.008.04.01.172.008.217 0 .024-.04-.344-.042-.26.001.042.028.436.027.45 0 .155-.016-.034-.02 0-.001.023.008.259.008.265 0 .01-.028-.31-.038-.375-.007-.05-.001.14-.005.104-.02-.212-.035-.666-.034-.228 0 .027.011.192.01.196-.003.103-.022-.2-.036-.254-.02-.092.02.342-.017-.019.012.273.022.421.035.74-.044-.878-.118-1.183-.05-.213-.014-.309-.035-.272-.041-.365-.003-.058-.026-.505-.052-.297-.003.026.028.296.01.212-.06-.649-.008-.014-.01-.013-.007-.01-.21-1.584-.3-1.843-.075-.308-.176-.57-.195-.636-.063-.217.002-.04-.008-.09a12 12 0 0 0-.241-.683c-.037-.118.02-.005.017-.017-.036-.15-.37-.943-.476-1.16-.005.011.192.452.053.184-.164-.31-.133-.346-.134-.356a13.1 13.1 0 0 0-2.837-3.844c0 .029.748.755.754.783.092.102-1.154-1.14-1.334-1.262q.181.165.358.336c-.23-.162-.675-.591-1.013-.814-.108-.073.085.086.08.084-.126-.076-.31-.22-.156-.134-.303-.192-.248-.178-.475-.33-.012-.008.078.068-.107-.044-.085-.055-.549-.334-.62-.355-.028-.01.177.178.233.152.487.326.173.077.365.199.029.02-.05-.007.432.307-.118-.025-.65-.415-.752-.464-.205-.112.596.414.76.491-.092-.014.052.042.225.17.188.141.098.09.2.166.274.213.178.103.385.303-.166-.237.386.307.533.477a13 13 0 0 0-.844-.698l.042.048q-.113-.09-.227-.176l.044.019c-.413-.276-.5-.36-.532-.384a12.5 12.5 0 0 0-1.411-.834c-.071-.033-.031.007-.54-.25-.164-.08.002-.03-.189-.11-.262-.047-.239-.087-.31-.116-.205-.08-.337-.112-.356-.119a13 13 0 0 0-.922-.294c-.005 0 .138.059-.046.002-.063-.021-.634-.258-1.168-.322q.204.045.406.095c-.157-.055-1.29-.198-1.017-.135.166.033.59.047.624.107-.317-.096-1.917-.23-2.455-.195q-.131.002-.166 0c-.023 0 .116-.022.085-.023-.025-.003-.504.021-.566.021-.038-.002.172-.026.154-.03-.014-.008-.614.032-.645.06.145-.025.559-.048.343-.013-.027.004-.172.002-.206.009-.31.054.623-.033.769-.029-.587.043-1.495.11-2.157.273-.272.037.394-.108.087-.063-.638.102-.162.061-.182.067-.153.05-.706.084-.686.163-.229.052-.16.02-.471.128l.129-.023c-.337.144-1.098.312-1.048.285.137-.083.53-.186.563-.197.048-.016.156-.15.716-.236.205-.121-.862.226-.386.038-.335.088-1.666.595-1.83.726-.02.015.104.012-.22.146-.154.065.202-.12.13-.096-.277-.012-2.906 1.824-3.261 2.336-.028.028-.03.005-.058.032-.085.084-.364.415-.509.57.317-.305-.248.332-.38.503-.209.254-.22.22-.311.33-.356.421-.74 1.183-1.001 1.524.071.012-.375.636-.51.958-.11.25-.207.633-.045.305-.18.43-.327.9-.442 1.32-.019.07-.013-.031-.044.088-.002.01.014.031-.012.134-.192.85-.13.43-.181.586a3 3 0 0 0-.055.202c.092-.503.245-1.073.292-1.223-.093.112-.286 1.097-.34 1.383-.002.01-.02-.03-.023-.02v.001c-.027.107-.118.801-.066.663.014-.037.054-.356.123-.73-.013.102.03.032.028.05-.03.218-.136.746-.158.937-.006.043.013.042.013.05-.022.173-.069.096-.03.278-.095.309.047-.588.003-.53-.034.031-.137 1.05-.102 1.644.01.247.029.418.044.416a.3.3 0 0 0-.017.092c-.016.126.03.689.052.784.003.016.053.004.056.024.002.05.048.738.127.984a14 14 0 0 1-.044-.413c.13.825.135.69.098.417l-.005-.04a8 8 0 0 1-.05-.493c.007-.01.087.499.151.84.04.22.065.371.023.271a5 5 0 0 1-.055-.265c-.029-.151-.053-.275-.038-.093.001.014.008.05.017.097.028.141.085.376.086.393.006.086-.072-.169-.133-.384-.046-.16-.084-.295-.09-.245q.037.114.067.25c.037.162.07.338.114.498.03.113.063.134.067.148.06.208.004.097.022.167.01.038.18.432.082.377.482 1.322.145.359-.073-.47.093.256.23.768.314.994.03.08.038.024.09.159.09.282.609 1.614.783 1.947-.11-.203-.106-.13-.026.03.08.158.049.007.068.036.016.033.388.779.465.896-.316-.544-.275-.406-.016.063l-.135-.19c.159.27.463.86.573 1.005.017.023-.018-.076-.008-.063.09.13.37.599.392.614.017.015-.095-.19-.04-.123.012.014.11.218.242.394.05.066.04.012.052.028.108.135.018.074.206.326.139.184.27.3.454.56-.591-.865-.083-.145.198.188.046.054.038-.018.286.321-.615-.652.128.226.281.401.008.01-.009.03.066.12.006.007.01-.016.081.065.678.756.236.28.35.437.05.068.402.418.494.513.02.022-.003.024.08.11.147.154.292.275.39.373.011.011-.012.03.183.213.054.05.12.102.051.022-.229-.266-.72-.71-.963-1.02-.225-.28.543.549.588.588.015.016-.148-.134.005.03.13.14.413.355.609.563.015.016.148.204.139.199s-.264-.243-.236-.2c.003.006.162.162.177.188.017.032.013.178.046.214.085.09.043.017.1.073.12.122.533.546.574.532l-.214-.205c.407.369.245.197.307.245.066.05.028.059.16.182.029.029.613.529.611.507-.333-.258-.189-.187-.203-.2-.054-.05-.14-.096-.216-.163-.522-.469.028-.027-.089-.143-.04-.04-.136-.1-.154-.117-.055-.055-.04-.075-.08-.108-.093-.079-.011.044-.02.038-.095-.055-.395-.37-.17-.216-.11-.12-.155-.097-.234-.197-.157-.198.109.065.189.13.29.235.348.315.748.658.142.122.322.246.391.303.044.038.384.425.477.341.152.141.336.394.508.525.149.113.128.042.143.051.023.016.194.154.258.196.077.05.051.01.168.09.29.201.252.225.281.251.324.282.209.119.287.17.064.049 1.047.776 1.264.897l-.269-.152c.143.13.32.197.302.242.077-.04.366.212.464.272.036.022.04.011.082.036l.006.004c.05.037.17.086.245.084q.03 0 .043-.003c.082-.022.03-.026-.043-.041a.5.5 0 0 1-.206-.103l-.058-.04.053.034a.35.35 0 0 0 .211.058c.06-.008.08-.023.014-.036H18c-.022.005-.053.022-.064.02-.09-.017-.013-.026-.02-.03-.01-.007-.072-.003-.084-.015-.003-.004.024-.01-.009-.039l-.088-.059q.03.013.088.047a.5.5 0 0 0 .177.062c.036.003.065 0 .074-.004.009-.01-.06-.026.102-.046l.076-.039h-.029c.35-.214.688-.43 1.03-.656-.03.034-.205.176.029.017.137-.094.02-.047.032-.056.132-.07 2.298-1.599 2.682-1.94.137-.108.504-.43.53-.453.174-.142.778-.64.894-.748.071-.065-.01-.019.055-.075.06-.053.01.016.03 0 .16-.121 1.25-1.17 1.511-1.422-.156.158-.925.94-.902.932.004-.002.21-.174.245-.218.079-.053.268-.3.396-.413.015-.013-.02.06.2-.152.077-.075.252-.279.46-.463.285-.28 1.675-1.846 1.728-1.988.002-.005-.189.221-.073.059.153-.216.044 0 .236-.241.032-.034.538-.726.548-.753.13-.224-.314.376-.312.365.01-.025.37-.53.384-.55s-.248.414.09-.092l-.129.165c.158-.238.192-.25.232-.306.124-.176.224-.387.443-.658.058-.072-.012.063-.004.054.07-.086.11-.224.22-.351.008-.01-.171.33.169-.25l-.077.116c.045-.083.372-.678.413-.76.127-.235.038-.02.157-.26-.098.144.257-.589.254-.54.025-.113.323-.739.436-1.044.075-.19.203-.59.224-.652.026-.075.035-.047.083-.182.014-.038.131-.451.24-.81.021-.069.085-.212.059-.079-.043.228-.187.645-.17.644.022-.001.17-.574.206-.73.175-.716.096-.298.107-.315.025-.046.102-.44.105-.457.018-.068-.024.215-.018.22.01.008.098-.373.085-.285-.015.126-.1.474-.105.496-.052.293.058-.1.089-.208.01-.033-.01.1-.004.073.095-.42-.015-.094.038-.375.045-.251.007.075.009.066.003-.012.053-.314.065-.361.01-.022-.095.766-.08.735q.07-.374.119-.753c.02-.018-.047.343-.053.38-.009.076.035-.132.038-.123.003.006-.025.254.017.032.013-.076.028-.24.075-.517-.12.976-.015.303-.005.274s-.041.442.035-.126c.036-.02.01.013-.007.176-.023.198.062-.255-.063.463.026-.037.112-.62.114-.65.004-.026-.005.104.004.058.094-.54.036-.168.073-.324.005-.014.056-.534.025-.137-.065.718-.151 1.015-.121 1.142.115-.526.146-1.176.156-1.339.018-.25.008.01.013-.02.002-.011.016-.228.016-.23.05-.15-.07.954-.13 1.301q.03-.137.056-.277a15 15 0 0 1-.054.38c.1-.6.01-.02.014.133.001.035.053-.361-.001.091.058-.33.047-.223.081-.527.014.01-.074.689-.125.957.181-.94.052-.407.182-1.225.003-.153-.04.238-.039.206.006-.117.052-.381.048-.71 0-.053-.032.17-.007-.162.003-.037.028-.247.028-.244.009.028-.007.237-.004.246.003.008.015-.225.015-.225.013-.007-.006.194 0 .165.012-.062.08-.901.013.196.038-.913.002-.118-.028.237-.007.09-.001.114-.012.243-.014.164-.043.359-.054.444-.012.092.083-.427-.034.326.084-.38.139-1.062.17-1.444.061-.765.002.54-.023.674-.003.036.02-.083.018-.059.002.038-.096.777-.104.85-.002.073.04-.27.052-.291.013-.013-.121.872-.038.395.06-.33.105-.948.136-1.048q-.06.735-.198 1.466.091-.396.16-.795c-.07.55-.173 1.02-.28 1.536.309-1.23-.059.41-.075.426.003.008.153-.47.174-.549-.074.44-.466 1.735-.202.988a7 7 0 0 0-.13.47c.033-.034.237-.769.215-.645-.022.143-.1.331-.165.542-.352 1.079-.16.822-.612 1.872l.036-.058a21 21 0 0 1-1.799 3.25c-.235.429-.975 1.485-1.382 1.97-.078.1-.494.57-.528.601-.06.063.247-.305.098-.147-.027.035-.732.824-.668.779.081-.085.32-.37.363-.413.327-.275-1.919 2.08-2.053 2.172l.17-.133q-.225.21-.454.416m4.597-8.075c.043-.108.196-.356.272-.51.107-.212.23-.597.21-.416q-.229.469-.482.926m-3.06 4.08c.166-.168.076-.004-.068.126-.016.014-.159.098.067-.127m1.59-1.878c-.005.009-.129.17-.134.174-.123.136.25-.349.134-.174m-8.854 7.904c.221-.141.03-.078-.091.02-.008.006.076-.01.09-.02m.16-.099c.186-.065.49-.367.217-.18-.03.02-.221.18-.217.18m7.672-6.543c-.007.029-.17.208-.241.283-.008-.01.176-.204.241-.283m-4.461 4.235c0 .018.659-.515.691-.565-.096.091-.69.553-.691.565m-1.73 1.31c.02-.012.256-.183.242-.187-.12.067-.33.236-.242.187M17.49 33.02c-.018-.01.131.184-.279-.152-.06-.05.182.09.16.071a2 2 0 0 0-.113-.085c.212.135.414.263.435.282.085.082-.203-.117-.203-.116m-1.875-1.259a3 3 0 0 1-.349-.265c-.01-.009.054-.003-.061-.09-.09-.067.021.065-.149-.075-.173-.143.078.022.063.008-.018-.016-.302-.221-.281-.231.016-.006.303.234.375.286.097.07-.002-.039.153.088.098.08.016.072.036.09.018.017.373.254.213.189m1.59 1.059.053.034zm11.384-9.326c-.072.099.109-.213.188-.326.01.003-.176.31-.188.326m-11.585 9.23c-.299-.219-.059-.07.2.096-.084-.048-.102-.024-.2-.096m7.354-4.146q-.02.014-.029.009c.035-.023.04-.022.029-.009m-.624.56c-.2.207.235-.186.221-.195a5 5 0 0 0-.22.194m-5.417 4.047c.025-.013-.285.261.193-.094-.281.163.013-.027-.003-.026-.004-.01-.18.101-.315.184a.2.2 0 0 1-.079.033c-.01.026.043.005.078-.02.056-.036.103-.066.125-.077zm-5.796-4.06c.066.035.224.192.339.299-.068-.034-.23-.193-.339-.298M21.427 3.56c-.988-.22-1.105-.302-.204-.078.018.004.266.087.204.078m-8.462.705c-.1.007.183-.129.379-.193.044-.015.217-.046.038.034-.01-.043-.298.06-.417.16m3.858 28.364c-.092-.035-.357-.242-.485-.34.09.042.373.253.485.34m1.315-29.514A.5.5 0 0 0 18 3.13q-.034.012-.023.014l.023.002c.091.003.25-.018.138-.032m-.456 30.095c.005.02-.356-.2-.363-.247.075.053.359.234.363.247m-4.958-3.878c.041.05-.214-.17-.284-.247.018-.005.255.215.284.247m3.703-26.084c-.095.01-.33.047-.353.064-.03.019.312-.04.353-.064m14.04 8.787c.003.012-.14-.341-.195-.5-.101-.305.2.485.196.5M19.15 3.133c.297.05-.033-.002-.023.027.201.013.706.07.363.006-.067-.012-.246-.025-.34-.033m-.277-.027c-.034.007-.253.027-.065.033.087.003.23-.02.065-.033m10.659 6.775c-.11-.255.46.88.458.92l.012.038c.024.04.119.26.118.291-.027-.067-.105-.247-.113-.268l-.008-.021a47 47 0 0 0-.467-.96m-1.13-1.764c.214.235.208.308.191.287-.22-.265-.059-.105-.064-.114-.011-.021-.172-.206-.126-.172m.924 1.386c.008.011.138.242.142.252.096.195-.274-.457-.142-.252M14.248 30.744c-.145-.13.018-.028.113.062.007.008.017.053-.113-.062m4.475-27.638A9 9 0 0 0 18 3.09c-.215.005-.386.019-.358.032a8 8 0 0 1 .358-.01c.384-.007.904.02.723-.006M10.968 5.34c.16-.11.007.04-.085.088-.034.018.045-.06.085-.088m6.938 28.029c.07-.004.049.058-.01.021-.002-.002.008-.021.01-.021m-5.61-28.81c-.57.34-.498.148.296-.211l-.067.05c.912-.413.062-.03-.15.093-.082.045-.005.026-.078.068m-2.14 1.39c-.548.343.43-.4.721-.598-.26.225-.613.489-.11.158-.7.533-.424.292-.455.308-.035.023-.132.117-.156.131m1.377-.982c.03-.022.278-.151.364-.203-.11.092-.565.346-.364.203m15.382 1.546c.028.005.08.035.239.196-.056-.043-.165-.138-.24-.196m2.183 16.238c.079-.138.23-.415.172-.335a6 6 0 0 0-.172.334M15.538 3.358c-.034-.003-.848.2-.562.152.084-.021.829-.187.562-.152m4.337-.168a5 5 0 0 0-.362-.034c-.02.013.33.044.362.034m9.608 18.86c.012-.017.219-.454.19-.41-.053.088-.226.472-.19.41m-15.807 8.281c-.032-.026-.056-.079-.066-.088-.023-.018-.591-.508-.356-.341.038.031.842.739.946.823.02.061-.307-.253-.395-.325-.016-.012-.043.001-.129-.069M27.754 7.337c.037.01.596.66.572.667a13 13 0 0 0-.572-.667m-.295-.32c-.12-.137.18.168.26.265-.005.007-.242-.245-.26-.264m-9.176-4.005c-.085.003.176.034.117.038-.037.003-.227-.009-.287 0-.018.003.176.029.231.029.08 0 .003-.022.09-.02.285.004.543.032.81.052.024.002-.163-.027.044-.01.032.003.223.04.47.066.554.006.943.134 1.625.28a9 9 0 0 0-.56-.152c-.568-.139-1.61-.266-2.223-.276-.156-.004-.081.012-.148.01-.054 0 .01-.025-.169-.017m10.783 19.816c.053-.057.17-.294.25-.444-.042.046-.165.303-.25.444M24.446 4.68c-.073-.04-.296-.167-.319-.17-.027-.006.296.173.319.17M10.683 27.418l-.145-.166c-.104-.152.301.307.145.166M7.798 23.55c-.081-.13-.166-.257-.169-.314.044.086.193.32.17.314m-2.21-6.097c-.03.033-.061-.41-.064-.496.016.03.084.47.064.495m21.35-11.011c.204.191.183.129.3.263.02.023.04.133-.164-.097-.038-.041.132.095-.136-.166M12.72 4.287c.054-.048.255-.134.39-.191-.024.026-.297.144-.39.191m17.146 16.978c.071-.115.29-.693.223-.555-.008.02-.186.476-.223.555M16.18 32.283c-.22-.131.201.182.354.262-.07-.047-.336-.25-.354-.262m-10.322-13.3a7 7 0 0 1-.063-.274c-.023-.212.139.501.063.275M8.624 24.9c-.074-.067-.412-.598-.47-.73.095.102.556.813.47.73M26.051 5.706q.236.182.44.366a8 8 0 0 1-.44-.366M5.66 18.054l-.005-.04zM22.138 3.636c-.156-.055-.131-.022-.122-.018.117.044.299.082.122.018m7.046 19.035c.043-.045.167-.303.244-.449-.032.038-.182.332-.244.449M9.6 6.356c-.175.116.431-.468.586-.558.017.002-.566.537-.586.558m7.203 26.413c.007.03.323.216.263.164-.035-.03-.264-.179-.263-.164M10.528 5.55c.06-.053.22-.144.175-.096-.058.061-.19.11-.175.096m6.54-2.506c-.035-.002-.496.067-.303.065.133-.001.152-.03.184-.033.034-.006.786-.028.12-.032m-10.294 7.01c.07-.16.177-.34.266-.5-.026.07-.219.441-.266.5m8.877 21.895c.031.04 1.007.749.463.326-.039-.028-.554-.423-.463-.326M26.938 6.442l-.09-.085zm-2.571-1.85c.062.02-.221-.137-.31-.174-.032-.002.302.17.31.173M7.027 9.53c.044-.096.148-.256.215-.368 0 .026-.18.335-.214.368m-1.599 7.102c-.006-.209-.019-.465-.037-.469a.1.1 0 0 0 .008-.031c.002-.017-.012-.242-.005-.34q0-.025.003-.042c.004-.056.008-.049.01 0-.005.29.116 2.014-.026.653q.022.114.047.229m3.665 8.985c.056.112.288.366.24.29-.034-.051-.297-.401-.24-.29m-2.408-4c.01.034.162.328.176.33-.07-.176-.226-.489-.176-.33m2.97 4.758a.4.4 0 0 0 .131.108c-.04-.068-.198-.22-.13-.108M26.545 6.01a3.3 3.3 0 0 0-.449-.33 1 1 0 0 0-.093-.085h.001c-.04-.119-2.537-1.631-.879-.592.051.034-.01-.025.197.115.013.009.014.023.055.052.1.063.6.434.704.506q-.001.004.017.021c.112.105.51.373.446.313M6.427 21.015c.018.064.104.256.126.27-.034-.099-.169-.418-.126-.27m9.22 11.002c.108.096.398.28.32.21-.044-.04-.443-.317-.32-.21m-8.315-9.1c-.35-.695-.089-.162-.165-.257zm21.599-14.19c-.068-.105.037.003.1.126.02.038-.062-.067-.1-.126m2.075 5.241c.001-.11.069.415.028.212zm-1.202-3.775c-.051-.07-.077-.12-.186-.333.169.312.029.014.186.333M5.388 16.166l.003-.003zm4.75 10.775c.047.09.232.298.194.22a1.7 1.7 0 0 0-.194-.22m15.958-21.26q.014.014-.015-.005 0-.003.015.005M9.185 25.798c.019-.002-.23-.343-.241-.355-.166-.177.133.218.241.355m8.634 7.722c.009.002-.036-.055-.074-.06-.032-.004.035.054.074.06m12.333-22.588c.052.123.122.298.124.334-.03-.084-.132-.334-.124-.334m.834 2.831c-.037-.155-.107-.51-.16-.734.017-.008.135.586.16.734M26.81 6.252c-.007-.009-.253-.232-.229-.19.038.056.294.257.229.19m-9.395 27.003c-.127-.069.123.139.264.201l.016.006q.014.001-.004-.016a5 5 0 0 0-.276-.191m-6.722-5.645c.143.138-.174-.24-.235-.278.06.07.184.229.235.278M6.86 22.137c.215.582.172.227.114.135a1.4 1.4 0 0 0-.114-.135m23.618-2.3c.024-.086-.095.223-.1.267a2 2 0 0 0 .1-.268m-18.587 9.128c-.254-.371-.268-.293-.295-.32-.059-.06-.178-.214-.289-.322q.196.18.4.36c-.104-.102-.927-1.008-.95-1.02-.04-.013.226.264.233.273.009.014.01.097.033.125.036.048.757.783.868.904M7.47 23.273c-.043-.09-.037-.126-.064-.163-.01-.013-.03-.005-.06-.049q.06.107.124.212m5.05 6.18c.074.105-.327-.284-.339-.3-.057-.08.28.217.339.3m-3.222-3.477c.01.017.27.358.28.345-.065-.095-.413-.546-.28-.345m-1.986-2.972c-.07-.132-.18-.39-.195-.347v.001q.096.174.195.346m9.642 10.019c.199.19.13.073-.068-.08-.075-.025.035.048.068.08m.713.51a.6.6 0 0 0 .333.087c.039-.003.058-.011.04-.017q-.009-.003-.04-.001a.8.8 0 0 1-.221-.03c-.014-.01.06-.005-.05-.05.002.013-.072.002-.062.01m-.537-.356c.218.188.297.16.128.049-.067-.045-.16-.076-.128-.049m-.939-.653c.074.06.297.229.457.312q-.301-.211-.603-.433c-.031-.006.079.066.147.121m15.053-17.102c-.001-.223.022.29.018.313-.005.065-.017-.214-.018-.313m-.03 2.797c.014-.06.034-.099.05-.236q-.047.203-.1.404c0 .11.034-.101.05-.168m.158-.513c-.003.02.044-.083-.013.167-.036.168.076-.76.095-.928-.009.188-.061.59-.082.761m.252-1.63c.003-.01-.002.348-.007.389-.017.216-.003-.33.007-.39m-.068 1.142c.022-.167-.009.204-.027.313-.006.01.025-.287.027-.313M31.42 13.1c-.011-.183-.091-.335-.027-.06a.3.3 0 0 0 .027.06m.224 3.326c-.012.168-.002-.204.002-.315.006-.01 0 .29-.002.316m-.196-3.463c-.031-.243-.068-.147-.064-.117.02.126.114.542.13.629-.112-.633-.054-.397-.066-.512m-.29-1.085c-.067-.215.077.343.115.447a13 13 0 0 0-.116-.447m-.42-1.306a5 5 0 0 0-.212-.502c.056.12.185.458.211.502m-.077-.267c-.062-.181-.116-.208-.02-.01.004.008.022.017.02.01m-.437-.98c-.043-.12-.144-.227-.052-.047.028.054.056.06.052.047m1.22 3.326c-.032-.177-.106-.396-.025-.023q-.048-.195-.102-.39c.104.49.122.448.15.59.038.198.008.187-.008.15.05.156.161.847.197 1.25a14 14 0 0 0-.158-1.273c-.017-.099-.044-.193-.06-.277-.028-.134.008-.017.006-.027m-1.925-4.55c-.187-.32-.092-.101.027.07a1 1 0 0 0-.027-.07m2.218 7.844c-.02.491-.009.13-.047 1.157.013-.432-.01-.025-.012-.11 0-.067.019-.32 0-.173.03-.193.038-1.027.034-1.066 0-.022.028.035.025.192m-.91-5.411c-.004-.132-.087-.15-.146-.388-.17-.277.335.827.326.986-.433-1.24.24.835.005-.054.213.726.085.233.13.341.047.117.153.531.161.506a14 14 0 0 0-.229-.753c.048.255-.11-.256-.148-.437zm.43 1.417a7 7 0 0 0-.167-.531c.025.072.243.847.167.53m.433 2.455a6 6 0 0 0-.07-.625c.026.201.051.517.07.625m-4.606-9.19c-.204-.164.391.379.23.21-.008-.009-.22-.203-.23-.21m3.509 4.772c-.095-.248-.084-.115.005.06.006.01 0-.048-.005-.06m1.144 6.354c.011.017-.029.728-.044.853.004-.072.04-.874.044-.853m.008-1.581c.013-.407-.086-.953-.094-1.012-.007-.06.019.032.017.018.001-.03-.096-.666-.106-.695-.005-.021-.005.096-.034-.032.072.248.197 1.414.192 1.473.004.047.002-.308.025.247m-.11-1.162c.014.16-.05-.285-.066-.392-.033-.239.068.37.066.392m-.182-1.065a6 6 0 0 0-.135-.537c.045.216.156.652.135.537M29.43 7.812c-.068-.1-.252-.378-.273-.386.074.096.254.376.273.386m2.119 10.956c.044-.195-.039.261-.072.392-.007.006.07-.375.072-.392m-.887-8.86c-.009-.074-.68-1.38-.808-1.543.115.167.773 1.461.786 1.527.009.017.025.025.022.016m.93 3.014c.037.13.037.218.04.234.026.163.075.503.053.43-.03-.291-.165-.92-.092-.664m-2.16-5.238c-.287-.409.238.393.18.281a8 8 0 0 0-.18-.281m1.299 2.373c.071.09.554 1.473.596 1.705-.075-.196-.109-.364-.198-.632-.024-.072-.025-.05-.028-.058-.043-.124-.002-.034-.028-.111-.007-.053-.41-1.042-.342-.904m.884 2.938c.029.077.156.98.15 1.017.023.274-.127-.949-.15-1.017m-.92-3.07c.09.133.34.819.146.36-.019-.044-.085-.236-.146-.36m-1.211-2.212a7 7 0 0 0-.322-.453c.047.06.471.69.322.453m.173.209c-.007-.01.046.101-.086-.105-.012-.017-.015-.061-.195-.31a1 1 0 0 0-.1-.116c.168.273.726 1.06.38.53m1.973 5.087c-.003-.05.036.064.044.171.003.046-.02-.037-.044-.17m-3.143-6.617c.212.219-.416-.501-.458-.528.017.027.44.504.458.528m3.056 12.855c-.056.245-.033.09-.035.102-.136.522-.085.387-.102.47-.04.177-.058.14-.129.437.118-.49.003-.046-.01-.036-.053.043.194-.64.236-.89.007-.034-.063.215-.047.127.06-.284.286-1.159.087-.21m.145-5.986c.037.114.125 1 .09.766.002-.038-.127-.934-.09-.766M3.54 16.141c-.027-.223-.039.294-.015.387.01.047.026-.29.015-.388m.424 3.574c.071.255.235.495.132.185-.011-.033-.128-.217-.132-.185m5.322-15.48c-.239.142-.192.176-.031.054.057-.043.038-.058.03-.054m-5.51 8.709c-.008.026-.063.341-.047.332.027-.115.096-.505.047-.332m5.575-8.767c-.125.105.123-.031.264-.176-.081.06-.25.165-.264.176m21.176 5.216c-.069-.115-.235-.453-.342-.64.007-.031.276.5.342.64M3.75 18.615c.069.241-.013-.287-.031-.233 0 .007.028.223.031.233M17.536 1.408c-.18.017.393.032.235.006a6 6 0 0 0-.235-.006m2.489.18c-.133-.03-.713-.1-.489-.057.036.004.477.067.489.057m11.387 18.249c.033-.065-.076.335-.096.391a2.4 2.4 0 0 1 .096-.392M7.916 5.387c-.101.1-.367.358-.4.416.117-.13.456-.427.4-.416M3.58 17.489c-.012.219.047.591.078.492-.06-.407-.038.055-.078-.492m6.51-13.86c-.098.06-.148.141-.136.136.113-.054.24-.185.136-.137M4.633 10.12c-.02-.002-.153.342-.123.301.009-.014.138-.3.123-.3M27.84 5.578c-.108-.125.253.226.343.345.037.065-.327-.33-.343-.345M12.934 2.235c.006-.03-.524.188-.306.125.054-.016.303-.115.306-.125m5.37-.867c-.381.001 1.216.123.798.063-.03-.01-.765-.07-.799-.063m2.592.347c-.064-.016-.017-.083.244.008.034.011-.134-.008-.106.003.017.003.588.16.614.169.029.006.001-.026.03-.02.034.005.38.128.56.189.34.114.382.113.41.122.081.03.211.092.374.156.822.309 2.013.936 2.564 1.359a11 11 0 0 0-1.58-.893c.18.039-.832-.353-.238-.13-.246-.169-2.647-.962-2.872-.963M4.235 20.72c-.085-.143.194.639.258.69zm-.848-3.754c-.011-.077-.083-.149-.07-.558v-.002c.004-.12.025.016.03-.006 0-.008.02-.382.035-.073.028.47-.046.047-.034.298 0 .029.07.506.076.477 0-.003-.019-.146-.017-.17.004-.09.027-.048.027-.06-.005-.044-.073-.79-.04-.903-.002-.033.081 1.196.093 1.244 0 .03-.055.023-.057.055-.003.017.074.506.08.572l.002.044c.005-.077.07.369.05.358a4 4 0 0 1-.05-.325v-.014c-.02.067-.134-.976-.138-.748-.043-.304.048.04.013-.189m-.078-1.468.016.095c-.008-.537.059-1.152.142-1.764.02-.155-.039.018 0-.184.031-.16.094-.337.086-.247-.003.022-.075.349-.093.516-.053.493-.005.371-.009.4-.002.031-.052.338-.06.508-.02.353-.015.544-.026.929l-.007.277c-.014-.201-.033-.217-.045-.277a1 1 0 0 1-.004-.253M15.25 1.538c.017-.02.361-.063.486-.082-.017.018-.363.057-.486.082m7.857 30.483c.065-.085-.525.402-.358.288.037-.024.288-.228.358-.288m-2.713 2.087c-.082.067.275-.163.256-.175 0-.008-.248.169-.256.175M5.084 8.865c.009-.018.159-.274.165-.281.122-.157-.362.689-.165.281m10.632 25.431c.305.18-.583-.418-.322-.217.016.012.31.21.322.217m-1.234-.838c.074.052.377.276.385.27.016-.005-.333-.261-.385-.27M10.096 3.497c-.055-.005.407-.261.564-.352.053.005-.413.248-.564.352m-2.599 2.06c1.613-1.53 1.279-1.167-.08.105-.018-.013-.017-.005.08-.106m2.186-1.814c-.055.062-.265.2-.403.3.015-.03.303-.229.403-.3m14.131 27.71c-.083.105-.54.469-.468.393.02-.018.496-.433.468-.393M5.15 8.688c-.057.028.292-.544.329-.582.131-.161-.314.528-.33.582m7.756-6.59c.102-.063.422-.16.628-.221-.088.046-.457.158-.628.22m-1.436.583a9 9 0 0 1 .296-.137c.232-.084-.537.273-.296.137M31.726 18.93c-.001.01-.043.223-.046.23-.048.188.078-.453.046-.23"/><path fill="#5d0505" d="M26.153 14.467c-.003-.031-.006-.158-.011-.212.025.06.022.325.011.212m-3.792-2.853q.049.004.098.012c-.085-.034-.203-.063-.283-.088-.013-.005.027-.014-.005-.022-.031-.008-.032.017-.079.01-.052-.011-.286-.069-.37-.075a3.8 3.8 0 0 0-.922.04c.309-.069-.008-.043-.094-.013-.018.008-.01.045-.31.124-.187.06-.041-.08-.335.084.252-.052.018.036-.154.133-.03.013-.27.148-.364.225-.033.025-.067.087-.109.122-.03.025-.06.03-.102.069l-.09.085c-.117.114-.266.292-.466.505l-.733.797-.82-.797-.09-.093c.211.106-.1-.146-.102-.153-.046-.075.231.196.131.078a5 5 0 0 0-.384-.358c.023.024.013.025-.01.017-.058-.028-.18-.099-.2-.132-.011.053-.569-.413-.696-.411-.024-.001.106.071-.216-.046-.036-.012-.016-.028-.036-.032-.012-.002-.097.044-.162-.007-.024-.016.162-.034-.228-.08.143.077-.539-.009-.672.008q.04.01.078.021c-.127-.016-.148.012-.176.014-.115.008-.276.014-.38.043-.123.035-.111.076-.255.105l.107-.004a3 3 0 0 0-.286.095c.197-.14-.048.015-.063.025-.027.014.003-.025-.041-.002-.005.003.01.02-.057.055-.141.075-.13.04-.19.073-.005.003.022.01-.074.072-.3.21-.009-.016.004-.024.016-.01-.142-.025.154-.15-.099.04-.126.014-.137.02a3 3 0 0 0-.176.113c-.07.061.011.038-.001.051-.01.01-.214.114-.205.208-.125.012.005-.092.148-.203.013-.028-.157.077-.164.084-.201.162-.052.118-.071.181-.01.033-.11.071-.007.048-.161.155-.082.042-.095.048-.021.01-.067.076-.075.082-.012.008.01-.04-.034-.004-.008.006-.049.094.044.02-.113.11-.082.119-.158.123.007.149-.096.023-.129.054-.083.082.002.104 0 .111-.008.046-.203.293-.227.37-.037-.056.127-.216.146-.26.062-.159-.151.177-.146.039q-.016.08-.027.161c-.085.06-.044-.068-.142.166.017.054.074-.163.083-.109.003.032-.057.163-.049.17.01.007.054-.116.061-.09.009.054-.204.478-.085.136-.035.08-.108.107-.132.175a.1.1 0 0 0-.007.033c-.002.022.026-.002.053-.017.023-.012.044-.018.044.017 0 .032-.02.1-.065.24-.04 0 .045-.188.046-.192-.002-.009-.092 0-.098.004a2 2 0 0 0-.087.343l-.003.012c-.027.125-.05.246-.075.29.05-.037-.045.403-.027.454.003.013.035-.034.037-.02.012.087-.045.319-.04.429.002.122.028.105.028.111.002.054-.018.013-.016.045 0 .05.038.388.048.404.002.005.02-.054.038.017.004.013-.035.012.025.223.076.252.002-.187.06-.088-.014.174.035.158.042.202.002.015-.01.14.032.262a4 4 0 0 1-.095-.26c.014.09.073.257.09.33.008.036-.035.02-.008.094.007.016.106.05.004-.133.024-.026.036.074.06.114.003.006.059.013.05.079 0 .015-.2-.07.054.254.008.01.007-.038.015-.028.006.006.041.1.048.11.008.008.005-.044.014-.034.048.053.018.171-.04.04l.038.142c.03-.074.05.06.084.117l.053.084c.172.253.066.017.12.07.096.094-.043.064.088.212.014.013-.083-.207.153.19l-.118-.167c-.026.066.14.203.15.215.112.145.023.057.207.259.016.018.036.069.073.106.153.154-.157-.238-.144-.264.003-.01.322.42.333.436.03.077-.159-.186-.143-.119 0 .027.507.612.61.734.11.144.114.256.175.199-.024.095.048.089.063.106.19.211.19.212.369.38.04.037.055.087.072.097.01.006.012-.027.057.005.06.046.374.38.391.414.016.035-.146-.128-.132-.082.12.115.24.218.364.332.051.048.014.036.036.056.01.01.2.158.196.147-.012-.025-.567-.516-.403-.407.03.021.104.14.119.09.482.453.99.892 1.513 1.324-.324-.218-.643-.518-.95-.777-.042-.036-.18-.16-.178-.128.254.228.59.493.839.714.008.007-.035-.002-.006.026.055.052.263.179.29.21.004.007-.12-.06-.096-.02.059.101.136.044.208.103.033.026.166.152.294.262a.6.6 0 0 0 .168.115c.073.02-.098-.089-.148-.146-.019-.018-.029-.03-.02-.03l.03.02c.182.123.369.256.571.33.004 0-.022-.029.025-.014.08.025.096.056.136.072.042.019.2.05.221.062.003.002-.033.02-.038.02-.073-.003-.091-.042-.097-.044-.023-.007-.05 0-.07-.007-.035-.011-.052-.028-.097-.044-.03-.011-.007.021-.037.01-.012-.004-.111-.099-.14-.054-.01.012.395.188.743.197.188.012.348-.009.385-.018a2 2 0 0 1-.275 0c.187.017.398-.062.428-.01.284-.054.56-.165.809-.327q.672-.45 1.324-.92c.134-.093.082-.015.291-.183q-.091.052-.186.1c.117-.074.61-.432.68-.5.01-.008.007-.04.124-.135.103-.085.133-.084.192-.127.048-.035.097-.082.112-.093.01-.008.023-.003.05-.022.084-.062-.003-.032.102-.071l-.055.052c.1-.077.242-.177.107-.05-.023.022-.01-.004-.028.011-.717.598-.125.142.11-.085.076-.042.418-.363.431-.372.02-.011-.03.052.054-.012.02-.011.463-.455.316-.284-.03.037-.25.243-.303.292.15-.093.401-.407.433-.438.131-.126-.225.267.065-.022.22-.225 0-.026.078-.119.044-.05.302-.298.273-.31.079-.092.043-.03.053-.04s.163-.195.217-.252c.007-.006-.002.025.006.018a5 5 0 0 0 .163-.201c.003-.005-.04.03-.029.011.015-.022.155-.194.159-.206.007-.016-.16.2-.143.157.083-.096.201-.264.243-.336-.01.018-.084.115-.11.148-.003-.026.155-.235.113-.155.028-.05.001-.021.014-.05.004-.009.052-.074.058-.088.001-.002-.054.061-.047.046.013-.027.158-.225.17-.24.036-.044-.074.122-.078.139 0 .003.11-.128.113-.13.017-.001-.1.149-.078.138q.045-.055.087-.112c-.09.157-.296.422-.338.499.162-.215.322-.446.349-.43.01.008-.049.108-.044.106.021-.007.1-.148.105-.153l.005-.005c.007.005-.12.198-.123.21-.007.018.072-.053.076-.05 0 .003-.09.142-.05.101s.121-.161.124-.165c.02-.02-.116.194-.119.201 0 .005.085-.103.09-.104s-.048.088-.064.127c-.011.03.044-.041.036-.028-.005.01-.143.208-.15.218-.008.015.032-.026.029-.018-.004.012-.052.073-.044.067.008-.004.204-.236.209-.232.01.01-.197.26.015.041l.04-.066c.032-.033-.083.172.07-.07-.277.456-.019.067-.043.145-.01.03-.121.206-.121.207.02-.01.05-.07.067-.086.01-.009-.084.153-.055.122.016-.015.123-.181.128-.188.048-.062.003.023.016.011.01-.008.073-.109.075-.111.004-.004-.07.141-.085.172-.011.024.046-.054.037-.038-.05.097-.197.276-.046.11.009-.01.053-.082.055-.084.036-.04-.046.093-.055.12-.014.05.1-.144.008.018.083-.112.124-.179.205-.321-.229.391-.287.547-.022.117-.083.137-.058.133-.083.174-.015.026-.157.21-.062.147.012-.008.082-.133.068-.089-.184.288.003.011.003.011.026.023-.456.707-.545.818-.096.137-.169.27-.191.298-.074.094-.022.008-.042.026s-.215.297-.227.31c-.046.046-.015-.016-.02-.011-.058.057-.347.408-.437.497.011.006.182-.184.088-.053-.11.152-.152.125-.156.128-.576.623-1.197 1.2-1.835 1.747.028.018.428-.363.44-.369.07-.029-.63.583-.727.644q.105-.075.211-.152c-.09.125-.37.298-.524.446-.05.048.06-.025.059-.022-.05.06-.154.13-.094.056-.135.134-.126.1-.24.19-.005.005.053-.022-.033.055-.04.037-.263.215-.285.25-.008.015.141-.027.124-.08.257-.175.063-.082.158-.157.015-.011-.001.04.227-.164-.014.078-.31.269-.353.31-.088.09.325-.21.373-.303-.01.06.032-.019.12-.09.098-.08.063-.035.115-.078.142-.12.067-.091.199-.17-.16.036.194-.177.296-.242q-.217.197-.438.39.016-.007.033-.012l-.12.097.013-.025c-.188.19-.255.207-.272.22l-.45.361q-.15.118-.302.214c-.045.025.006.043-.341.2-.112.046-.018-.022-.14.038-.136.123-.152.076-.199.094-.137.052-.22.091-.233.096a4 4 0 0 1-.636.136c-.003 0 .103.006-.028.017A5 5 0 0 1 18 24.1c-.148-.01-.324-.028-.492-.033q.137.023.277.035c-.11.011-.876-.102-.695-.05.112.042.402.028.426.08-.128-.018-.55-.075-.933-.218a3.4 3.4 0 0 1-.763-.38c-.012-.01.079.026.062.013-.007-.005-.087-.055-.164-.109a2 2 0 0 1-.124-.09c-.014-.015.086.041.082.03-.004-.007-.264-.199-.292-.192.07.039.248.173.14.12-.013-.006-.068-.062-.085-.07-.129-.063.137.123.269.213l.078.053-.08-.048c-.273-.166-.623-.447-.912-.637-.11-.103.197.108.07-.004-.265-.234-.092-.035-.103-.04-.083-.035-.258-.296-.307-.234-.096-.087-.056-.07-.207-.171l.047.056c-.19-.085-.453-.442-.421-.429.083.036.234.202.25.213.023.016.134.002.333.243.133.034-.363-.324-.119-.183-.154-.107-.733-.623-.833-.68-.012-.006-.002.076-.13-.07-.061-.07.108.073.084.036-.082-.096-1.393-1.28-1.608-1.553-.015-.016.004-.022-.011-.038-.045-.048-.228-.213-.299-.31.136.21-.18-.155-.253-.256-.113-.15-.08-.162-.124-.23-.169-.259-.508-.616-.579-.864l-.003-.007c-.057.05-.202-.406-.287-.596-.071-.148-.21-.353-.147-.134a8 8 0 0 1-.31-.807c-.014-.043.024.01.001-.062-.002-.007-.025-.01-.044-.073-.147-.525-.037-.278-.047-.379a2 2 0 0 0-.012-.129c.057.31.165.656.196.747.013-.089-.188-.668-.196-.85 0-.007.028.01.027.004-.012-.066-.07-.488-.09-.398a2.6 2.6 0 0 0 .055.452c-.017-.062-.037-.01-.04-.021-.04-.133-.05-.469-.052-.587 0-.027-.02-.024-.02-.028-.002-.108.054-.066-.006-.175.057-.196.029.365.074.322 0-.032.002-1.262-.022-1.265q.009-.005.027-.054c.025-.075.076-.415.08-.476 0-.01-.05-.016-.048-.029.002-.01.016-.061.037-.131l-.002.01c.04-.148.113-.366.128-.478a5 5 0 0 0-.095.25c.148-.517.122-.44.048-.274q-.006.013-.01.024c-.055.132-.109.3-.113.303-.012.004.067-.327.154-.536.055-.138.104-.226.095-.154-.002.01-.037.092-.064.165-.035.092-.06.171-.003.066l.023-.059c.032-.088.087-.235.094-.243.035-.045-.018.119-.05.26-.022.103-.035.193-.012.168a.8.8 0 0 1 .035-.16c.032-.102.08-.206.117-.304.027-.07.012-.098.015-.106.053-.129.044-.046.064-.088.008-.023.086-.291.132-.208.424-.791.05-.258-.186.245.046-.172.229-.466.31-.598.029-.047-.012-.035.037-.116.084-.181.724-.855.927-.987-.105.103-.054.096.03.021.085-.074-.012-.042.003-.06a7 7 0 0 1 .525-.372c-.325.234-.233.203.05.022l-.11.1c.156-.124.538-.285.635-.342.015-.01-.053-.003-.045-.008.084-.056.406-.166.418-.177.01-.011-.132.024-.086-.005.01-.006.152-.029.279-.08.047-.019.01-.03.022-.035.1-.043.05.01.236-.05.136-.043.232-.106.43-.132-.65.098-.11-.016.161-.069.043-.008 0-.047.266-.057-.549.142.162.012.311.018.008 0 .012.025.084.024.006 0-.003-.018.064-.02.639 0 .23.012.35.033.05.008.361.014.444.029.019.003.008.019.08.03.13.02.25.027.335.046.01.003.004.029.165.063.045.01.097.015.036-.012-.203-.09-.62-.125-.862-.172-.223-.052.487.032.521.052.014.003-.125-.01.012.02.118.027.345.033.515.101a1 1 0 0 1 .129.092c-.006-.001-.218-.062-.19-.04.003.002.135.046.149.06.018.019.037.14.063.153.067.033.03-.007.075.012.097.038.407.22.432.195l-.157-.085c.298.143.178.068.223.083.048.017.02.038.116.096.024.008.416.255.413.243-.22-.128-.123-.107-.132-.114-.036-.028-.097-.04-.148-.072-.365-.22.024-.033-.058-.091-.03-.021-.1-.039-.112-.047-.04-.026-.03-.049-.059-.062-.068-.031-.007.042-.013.04-.068-.012-.293-.151-.128-.115-.084-.056-.114-.018-.177-.067-.128-.097.082.005.142.028.213.081.268.127.542.293.1.061.222.121.266.153.031.019.228.277.312.191a1 1 0 0 1 .1.135c.06.09.113.186.168.24.078.076.084.02.092.027.013.01.095.104.125.128.037.03.034.002.086.05.127.117.09.138.1.154v.002H17.37c.159-.113.056-.097.083-.131.018-.02.259-.263.497-.465.078-.067.145-.12.176-.15q-.069.069-.133.14c.104-.054.173-.16.204-.124-.031-.074.194-.174.252-.213.022-.016.013-.025.042-.045.114-.079.388-.22.453-.257.276-.173-.484.17-.534.219.102-.084.761-.439.437-.314-.05.02-.118.093-.142.109-.171.107-.049.003-.064.008-.026.01-.126.102-.157.119-.01.005.037-.059-.125.045.06-.08.55-.33.615-.359.023-.01-.152-.004.305-.136l-.021-.008q.364-.148.746-.235c-.025.017-.16.073.016.027.103-.025.02-.033.03-.036.045-.014.483-.106.953-.109.47-.01.959.075 1.114.11.107.018.403.078.425.086.135.032.585.22.67.263.056.024.012-.018.06.006.045.022-.01.017.004.024.119.04.927.513 1.073.688-.094-.101-.672-.449-.67-.422.002.003.133.1.164.114.038.042.221.11.298.181.009.008-.042.001.1.119.048.04.19.13.296.262.219.13.936 1.173.964 1.255.003 0-.075-.159-.008-.06.087.134-.02.031.06.198.019.023.222.491.224.508.077.136-.07-.288-.069-.283.017.01.152.359.152.375.003.014-.125-.261.002.08l-.028-.123c.062.162.042.184.053.224.031.124.1.25.098.46-.001.056-.03-.029-.03-.022-.001.034.012.07.024.11.01.03.019.073.012.121-.002.008-.05-.205.006.173q0-.04-.003-.08c.018.052.062.437.06.49.005.152-.02.021-.011.173.025-.1.034.364.009.338.029.064-.015.457-.044.638a7 7 0 0 1-.054.385c-.01.044-.025.028-.045.106-.006.022-.047.259-.126.455-.015.038-.067.112-.051.039.028-.125.11-.356.092-.356-.016 0-.09.318-.122.4-.14.38-.082.153-.09.162-.02.022-.097.227-.102.234-.019.034.028-.114.02-.119s-.101.184-.087.138c.021-.064.102-.24.105-.252.041-.153-.052.046-.084.098-.01.015.01-.054.003-.04-.093.208.016.056-.042.197-.054.124-.003-.043-.006-.038-.003.006-.064.155-.08.176-.004.012.12-.389.097-.377q-.06.189-.136.375c-.019.003.065-.169.07-.188.011-.039-.037.062-.041.055-.002-.003.033-.128-.014-.021-.017.037-.036.12-.107.248.183-.473.038-.152.027-.14-.01.01.067-.217-.042.054-.036-.001-.007-.01.019-.089.03-.097-.062.119.075-.225-.02.015-.127.292-.136.305-.006.012.012-.051 0-.03-.135.242-.048.073-.097.139-.004.006-.12.238-.039.058.143-.33.206-.469.18-.54-.1.244-.203.549-.239.622-.053.111-.006-.008-.015.005l-.05.1c-.06.055.203-.426.249-.594l-.064.124q.034-.088.064-.177c-.112.276-.005.009-.012-.071-.001-.018-.051.17 0-.046-.055.153-.044.102-.086.243-.008-.007.087-.325.112-.453-.144.436-.022.202-.182.567-.014.075.054-.104.05-.088-.012.055-.071.172-.11.328-.008.026.052-.068-.017.08a1 1 0 0 1-.065.1c-.002-.016.046-.106.044-.111s-.05.098-.05.097c-.013-.002.037-.087.027-.076-.02.025-.222.378.016-.096-.18.403-.008.059.054-.102.016-.04.013-.054.034-.113.027-.075.063-.162.075-.201.013-.043-.085.19.037-.154-.072.171-.174.483-.265.643-.18.32.084-.244.098-.308.005-.016-.025.033-.022.022.009-.016.131-.345.13-.382.003-.035-.038.123-.05.13-.005.005.103-.401.035-.184-.044.15-.123.43-.166.465q.126-.324.207-.659a6 6 0 0 1-.134.352c.076-.245.142-.457.17-.7-.148.563.011-.19-.002-.2-.001-.003-.064.216-.076.25.035-.2.07-.802.008-.455a1 1 0 0 0 0-.217c-.015.018-.03.353-.041.297-.01-.066.019-.15.022-.248 0-.5-.085-.366-.122-.85l-.006.03a5 5 0 0 0-.15-.744 3.7 3.7 0 0 0-.282-.734 7 7 0 0 0-.6-.738l-.21-.229c-.02-.027.122.096.067.031-.008-.018-.33-.281-.32-.243.036.027.158.107.173.127.052.066-.159-.115-.42-.268a3 3 0 0 0-.6-.278l.069.048a4 4 0 0 0-.219-.086m3.708 2.407c.025.064.03.233.04.331.017.136.082.365.018.269q-.013-.3-.058-.6m-1.188-2.773c.087.116-.017.06-.083-.038-.008-.01-.037-.117.083.038m.79 1.265-.054-.12c-.031-.108.12.23.055.12m-6.146-2.67c.156-.054.026-.064-.064-.011-.006.003.054.014.064.01m.112-.035c.134.002.36-.144.163-.084-.02.005-.17.083-.163.084m5.55 1.85c-.02-.005-.102-.127-.14-.178.011-.007.103.13.14.179m-3.101-1.992c-.007.005.498.132.534.135-.078-.024-.525-.15-.534-.135m-1.345-.073c.014 0 .196-.011.19-.021-.09-.013-.252.015-.19.021m-2.533.912c-.005.009.149-.013-.14.141-.043.024.08-.095.064-.087a1 1 0 0 0-.074.046c.116-.098.249-.191.264-.195.072-.023-.111.09-.114.095m.464.863a.8.8 0 0 1-.144-.159c-.004-.005.04-.007-.012-.061-.044-.045-.005.049-.085-.047-.084-.099.052.011.045.001s-.16-.15-.143-.162c.017-.005.162.164.194.196.045.044.013-.029.078.051.04.05-.016.054-.009.065s.16.142.076.115m7.325 2.276c-.002-.035.009-.005.02.044a1 1 0 0 1 .024.162c-.006.003-.025-.104-.037-.167zm-8.058-2.898-.057.043c-.047.033-.043.022-.01-.014.03-.032.09-.087.155-.144-.045.046-.027.07-.088.115m5.904-.335q-.01-.01-.006-.02.022.028.006.02m-.435-.266c-.164-.062.151.1.155.089a1 1 0 0 0-.155-.09m-4.082-.234c.016-.003-.196.154.132-.027-.191.06.004-.02 0-.024-.016-.016-.323.121-.393.148-.04.053.206-.086.26-.097m-2.607-.058c.05-.002.182.065.27.111-.05-.002-.18-.072-.27-.111m1.476 14.286a3 3 0 0 1-.195.013c-.493-.004-.512-.056 0-.031h.047c.012.001.19.008.148.018m-4.607-2.276c-.018-.06.12.046.2.128.018.019.07.106-.02.043.03-.03-.09-.149-.18-.171m4.268-11.016c-.039.064-.197.19-.265.254.025-.054.182-.193.264-.254m-1.839 12.767c-.062-.039-.119-.041-.11-.032.043.04.175.087.11.032m2.358-13.16c.015.005-.195.17-.23.154.046-.033.22-.159.23-.154m-1.491-.514c.035.024-.17-.056-.227-.087.01-.014.204.07.227.087m-1.702 13.119a.8.8 0 0 0-.165-.107c-.023.001.134.108.165.107m8.731-3.31c.007-.004-.105.17-.167.236-.117.125.162-.231.167-.236m-7.263 4.138c.185.09-.022-.006-.023.023.13.05.463.138.242.05-.042-.016-.159-.05-.219-.073m-.173-.076c-.024.001-.172-.032-.053.017.055.022.156.028.053-.017m6.617-3.105c-.112.097.354-.396.367-.412l.017-.013a.6.6 0 0 1 .115-.123c-.026.029-.094.11-.103.117l-.01.008a6 6 0 0 1-.386.423m-.804.782c.105-.136.155-.124.146-.113-.12.142-.056.034-.06.036-.012.007-.096.109-.086.076m.64-.62.108-.111c.09-.075-.19.214-.108.11m-4.977-10.162c-.088-.083.02-.028.074.033.004.006.002.042-.074-.033m-1.571 13.072c-.034 0-.673-.39-.65-.349.043.055.8.46.65.349m-3.72-2.787c.08.074-.033.02-.066-.03-.012-.018.046.01.066.03m6.036-10.699c.104-.08.113-.011.003.025-.004.001-.007-.021-.003-.025M13.294 21.58c-.297-.226-.153-.252.188.087l-.045-.017c.416.367.024.032-.084-.052-.041-.032-.021.01-.059-.018m-1.044-.988c-.195-.316.254.213.408.337-.163-.106-.34-.284-.12-.023-.364-.34-.19-.221-.202-.237-.015-.018-.077-.064-.086-.077m.695.652c.017.012.123.128.167.163-.079-.03-.281-.243-.167-.163m8.486 1.04c0-.021.017-.05.11-.125-.022.03-.076.086-.11.124m4.58-8.126c.01.09.017.269.027.212a1.3 1.3 0 0 0-.027-.212m-11.197 8.58c-.013-.012-.378-.287-.266-.174.034.034.37.278.266.173m2.313 1.266c-.046-.009-.234-.053-.24-.05-.017.012.216.062.24.05m8.902-9.393c0 .012.004.284.01.254.014-.057-.006-.295-.01-.254m-8.453-4.133c-.02-.014-.034-.053-.041-.058-.014-.017-.415-.253-.247-.187.034.001.577.4.631.466.005.047-.194-.157-.254-.195-.01-.006-.033.012-.088-.026m4.315 11.376c.004-.021.334-.338.34-.323q-.17.164-.34.323m-.174.153c-.08.057.089-.097.141-.139.007.007-.13.131-.141.14m-5.564 1.566c-.052-.023.088.082.052.069-.025-.008-.131-.078-.17-.091a.6.6 0 0 0 .123.1c.048.023.011-.019.063.008.173.086.326.164.497.222.016.005-.099-.049.033-.005.02.007.136.068.3.103.332.015.57.09.949.078q.069-.003.143-.012c-.008-.002-.07-.002-.143-.004a5 5 0 0 1-.238-.013c-.384-.01-1.06-.173-1.422-.36-.094-.044-.055-.01-.095-.03-.032-.016.018-.018-.092-.065m9.843-9.46c-.012.045.014.192.02.287.013-.035-.012-.194-.02-.287m-5.856 9.192c-.042.034-.181.124-.19.137a.7.7 0 0 0 .19-.137M15.143 9.577c-.005 0-.133-.01-.138-.012-.113-.032.272 0 .138.012m-2.948.641c-.083.05-.161.11-.203.106.055-.03.204-.127.203-.106M9.71 13.51c.017-.005.007.05-.008.118l.003-.011-.052.196a.8.8 0 0 1 .022-.203l-.002.011c.011-.059.026-.107.037-.11m11.666 8.733c.113-.096.07-.101.15-.151.013-.009.092.01-.047.099-.025.015.052-.072-.103.052m-7.834-.524c.042.01.131.09.193.143-.024 0-.148-.107-.193-.143m12.468-6.615c-.018.075-.04.418-.02.334.004-.012.019-.286.02-.334m-8.407-3.89c-.08.113.122-.084.185-.172-.035.034-.181.165-.185.172m-7.545 1.345-.077.168c-.08.117.12-.32.077-.168m3.07-2.707a4 4 0 0 1-.516.183c.064-.069.578-.235.515-.183m7.787 12.792a5 5 0 0 1 .238-.187 1.5 1.5 0 0 1-.238.187m-11.08-9.507q-.004.013-.01.024zm8.808 10.813c-.106.016-.081.035-.074.034.082-.007.195-.054.074-.034m7.339-9.723c-.012.035.014.194.014.287a1.4 1.4 0 0 0-.014-.287m-13.964 6.05c-.06-.103.292.214.35.294-.008.02-.342-.277-.35-.294m5.955-9.362q.006.002.017-.006c.043-.028.155-.143.119-.123a.7.7 0 0 0-.13.114q-.008.013-.006.015m-5.445 9.83c.036.026.096.11.06.095-.044-.021-.07-.102-.06-.096m3.022 2.415c-.013-.013-.229-.142-.156-.067.05.052.076.037.09.047.015.01.323.268.066.02m-5.167-5.039c.045.066.088.146.133.222q.025.044.048.078a1.004 1.004 0 0 1-.181-.3m7.032-6.656c.007.006.468-.454.189-.207-.021.02-.253.237-.189.207m3.96 10.778-.05.04zm-1.315 1.075c.026-.034-.142.084-.192.12-.007.024.19-.114.192-.12m-9.473-4.901c.04.046.094.144.137.205a.7.7 0 0 1-.137-.205m-.902-4.388c-.03.127-.045.286-.027.29q-.005.004-.011.019c-.005.01-.01.149-.02.208-.096.354.176-1.383.07-.37zm3.97-4.277c.078.004.282-.06.226-.058-.04-.002-.307.052-.227.058m-2.528 1.399c.018-.014.158-.17.155-.181-.098.071-.241.242-.155.18m3.108-1.465c.047-.002.105-.041.099-.042-.05-.01-.181.03-.1.042m6.868 12.706c-.05.034-.187.169-.209.208a.4.4 0 0 0-.059.033c-.04.032-1.247.98-.422.365.026-.02-.018-.003.086-.084.007-.005.018.002.039-.015.049-.037.308-.24.354-.29q.002.002.014-.003c.073-.039.236-.24.197-.214M10.85 11.457a.5.5 0 0 0 .113-.152c-.05.043-.187.218-.113.152m6.619.034c.053-.036.163-.18.117-.148-.031.022-.18.193-.117.148m-5.644-.934c-.406.275-.093.07-.14.132zm10.725 10.58c-.05.045-.01-.029.05-.07.02-.012-.022.046-.05.07m1.942-2.293c-.045.038.118-.188.067-.09zM23.17 20.48c-.02.043-.04.067-.13.156.127-.14-.001-.021.13-.156M9.661 14.318h-.003zm5.031-4.664c.062.02.232.023.182 0-.005-.003-.157-.018-.182 0m6.202 12.945q.01-.004-.002.01-.003-.003.002-.01M13.782 9.763c.003-.02-.253.03-.262.036-.138.064.157-.018.262-.036m4.944.71c.01-.008-.084.004-.12.044-.028.032.08-.014.12-.044m4.73 9.682c.047-.053.112-.128.131-.135-.032.035-.126.142-.131.135m.965-1.228c-.039.076-.15.232-.224.329-.012-.007.183-.261.224-.329m-3.169 3.349c-.005.003-.142.11-.115.106.04-.006.157-.132.115-.106m-2.87-11.604c-.065.063.128-.026.19-.102.033-.04-.178.09-.19.102m-3.158-.965c.123 0-.177-.05-.22-.029.056.005.177.029.22.03m-3.807 1.25c.333-.196.1-.153.053-.102a.6.6 0 0 0-.053.102m14.42 4.995c-.004.049.046-.128.04-.153a.7.7 0 0 0-.04.153m-9.56-5.929c-.227-.167-.223-.09-.244-.098-.047-.014-.155-.067-.249-.084q.164.021.324.054c-.075-.046-.812-.22-.832-.194-.024.016.21.04.217.045.01.004.038.066.059.072.036 0 .639.149.725.205m-4.227.45c-.055.026-.083.016-.104.037-.007.007.004.026-.02.05q.061-.046.124-.088m4.7-.344c.06.054-.248-.092-.26-.097-.047-.039.213.05.26.097m-2.837-.37c.012-.003.273-.03.269-.043-.07-.007-.418.048-.269.043m-2.02.824c-.078.05-.23.136-.194.15q.095-.076.194-.15m6.282.325c.16-.067.06-.066-.064.017-.021.045.038-.006.064-.017m.452-.284c.04-.024.451-.262.378-.247-.03.003-.258.156-.268.163-.018.008.043-.062-.08.02.012.003-.046.07-.03.064m-.325.222c.152-.07.146-.144.044-.07-.04.029-.066.08-.044.07m-.506.44a1.6 1.6 0 0 0 .228-.226 7 7 0 0 0-.309.29c0 .02.042-.033.081-.063m7.035 6.857c-.066.095.067-.136.073-.145.023-.026-.044.103-.073.145m.461-1.377c-.014.029-.032.044-.05.112q.049-.095.095-.191c-.004-.058-.03.047-.045.079m-.162.225c.003-.01-.044.03.02-.081.045-.075-.113.364-.166.432.035-.086.12-.27.146-.351m-.453.675c-.004.003.074-.15.083-.168.055-.09-.058.15-.083.168m.244-.494c-.037.073.029-.094.05-.143a1 1 0 0 1-.05.143m-1.107 1.652c-.074.054-.088.145-.008.034.004-.005.011-.036.008-.034m.916-1.321c.041-.07-.036.092-.064.137-.007.002.058-.126.064-.137m-.997 1.336c-.089.079-.02.082-.01.072.047-.04.163-.213.185-.25-.19.245-.134.14-.175.178m-.333.426c-.07.084.127-.114.15-.164-.035.041-.13.14-.15.164m-.473.462c-.043.04-.172.157-.186.184.045-.045.176-.16.186-.184m-.116.072c-.075.055-.063.097.005.016.002-.003-.002-.017-.005-.016m-.384.341c-.056.029-.08.103-.007.039.022-.02.012-.041.006-.038m1.165-1.227c-.061.06-.116.157.007.022l-.12.15c.17-.169.132-.177.178-.228.065-.071.08-.05.074-.03.04-.069.253-.326.367-.481-.108.131-.291.337-.404.46-.032.036-.057.075-.085.105-.044.048-.014-.002-.017.001m-1.674 1.672c-.148.1-.035.06.036-.011a.1.1 0 0 0-.036.011m2.632-2.92c.114-.198.065-.038.235-.487-.062.192.008.016-.001.055-.007.031-.06.137-.022.08-.044.078-.222.429-.235.442-.006.008-.015-.028.023-.09m-1.693 1.996c-.075.009-.04.075-.15.128-.071.144.305-.292.385-.314-.446.441.323-.264-.033.002.27-.24.076-.09.11-.135.034-.048.181-.189.162-.192q-.127.137-.256.27c.11-.063-.075.112-.158.151zm.517-.481a3 3 0 0 0-.175.2c.03-.022.288-.307.175-.2m.762-.913c-.058.077-.156.191-.18.239.06-.075.157-.191.18-.24m-3.664 3.408c-.092.086.22-.14.12-.087zm2.185-1.815c-.102.076-.026.067.034-.005.003-.004-.029.002-.034.005m1.975-2.362c-.002-.01.14-.309.16-.364a2 2 0 0 1-.16.364m-.42.614c-.139.138-.273.361-.292.383s-.002-.021-.006-.016l-.213.255c-.006.009.046-.02.01.032.074-.098.426-.527.439-.553.012-.02-.105.104.062-.1m-.341.436c.055-.053-.08.112-.116.148-.08.083.11-.14.116-.148m-.34.383a2 2 0 0 0-.173.197c.082-.067.213-.236.173-.198m-1.776 1.68c-.043.037-.171.13-.171.143.043-.037.172-.13.171-.144m3.19-4.19c-.027.086.018-.118.032-.177.007-.002-.028.17-.032.177m-2.37 3.387c-.025.022-.536.483-.609.547.08-.053.592-.505.61-.53.006-.007.002-.02-.001-.017m1.038-1.058c.032-.055.07-.076.076-.082.052-.058.153-.182.14-.148-.09.102-.28.34-.216.23m-1.944 1.836c-.178.153.183-.119.125-.094zm.96-.833c.031-.041.531-.512.604-.594-.053.084-.12.13-.213.225-.026.025-.013.024-.015.027-.044.044-.018.005-.046.031-.015.018-.371.372-.33.31m1-1.035c.022-.032.295-.36.306-.373.093-.09-.278.352-.305.373m-1.06 1.064c.037-.067.296-.289.136-.12-.016.015-.093.072-.137.12m-.898.769a2 2 0 0 0-.202.164c.03-.019.31-.24.202-.164m.078-.102c-.004.003.051-.02-.039.05-.007.006-.034.003-.141.098a.3.3 0 0 0-.046.056c.138-.07.448-.399.226-.204m1.877-1.745c-.02.014.002-.04.042-.071.017-.014 0 .023-.042.071m-2.57 2.318c.103-.097-.256.17-.272.185.018 0 .261-.175.271-.185m3.846-4.829c.021-.109.02-.039.02-.044.053-.232.018-.174.021-.212.004-.08.031-.062.032-.198-.005.224.009.021.019.016.044-.018-.05.293-.064.403-.002.016.03-.095.026-.054-.008.131-.15.508-.054.09m-1.21 2.41c.03-.047.302-.36.238-.27-.008.015-.277.341-.238.27m-12.2-4.039c.011.086.058-.105.048-.143-.006-.019-.054.105-.049.143m.438-1.247c.035-.082.006-.213-.037-.103-.005.012.02.107.037.103m1.795 6.084c-.062-.109-.096-.065-.035-.001.022.022.037.004.035 0m-2.169-3.623c0-.01-.02-.13-.033-.124-.003.046.03.193.033.124m2.2 3.645c-.056-.045.002.072.09.108-.033-.03-.083-.104-.09-.108m8.572.48c-.037.051-.172.163-.247.23-.02-.006.196-.18.247-.23m-10.583-6.237c.009-.091-.07.083-.036.076.002-.002.036-.073.036-.076m4.983 8.364c-.03-.015-.017.003.007.028.024.028.07.064.054.03l-.046-.044zm.743.403c-.045-.016-.23-.085-.163-.044.01.008.156.058.163.044m7.462-6.504c-.018.028.006-.152.01-.178.003-.01.016.14-.01.178m-11.727 2.89c-.044-.044-.14-.171-.17-.182.05.055.159.219.17.182m-1.573-4.75.004-.007.003-.011c.047-.071.075-.19.024-.171-.033.141.041-.005-.026.17l-.003.012zm2.43 5.617c-.033-.037-.088-.036-.086-.03.026.052.111.077.087.03m-2.18-2.845c.015-.01-.045-.134-.049-.113-.002.008.036.121.049.113m8.735 4.408c-.069.037.114-.11.177-.14.039-.006-.168.136-.177.14m-5.53-.595c.022-.014-.18-.173-.117-.09a.5.5 0 0 0 .117.09m1.875 1.488c-.126-.037.337.237.226.139a6 6 0 0 1-.226-.14m.806.321c-.021-.006-.003-.076.084-.036.011.005-.046.017-.036.023a1.5 1.5 0 0 0 .213.03c.01-.002-.002-.026.008-.028s.134.02.2.015c.121-.008.13-.031.14-.032.03-.003.08.003.139-.008.242-.042.57-.183.791-.313q.096-.057.175-.1a5 5 0 0 0-.17.108 2.7 2.7 0 0 1-.426.23c.045-.053-.288.126-.094.018-.062.037-.507.148-.793.12a1.4 1.4 0 0 1-.23-.027zm-5.64-9.446c-.005.063.147-.175.136-.216a1.4 1.4 0 0 0-.136.216m-.4 1.275c0 .029.056.065.004.205-.015.042-.024-.009-.03-.002-.003.003-.05.134-.041.021.016-.171.047-.01.061-.1.001-.01-.002-.186-.01-.178-.001.001-.004.053-.008.062-.018.03-.034.01-.036.015-.007.015-.013.291-.043.328-.016.012.029-.441.043-.457.005-.01.058.005.065-.005.002-.003.007-.046.014-.093l.003-.013a1 1 0 0 1 .02-.109l.007-.013c-.023.02.02-.127.037-.118a.5.5 0 0 1-.029.108q0 .003-.003.004c.012-.007-.001.061-.011.133l-.003.013c-.014.088-.024.179 0 .139-.004.11-.04-.024-.04.06m-.03.527-.016-.035c.001.192-.027.414-.01.636.006.056.034-.012.031.062-.002.06-.025.129-.036.098-.003-.008.005-.13-.001-.19-.018-.178-.043-.132-.045-.142-.002-.012.016-.125.016-.187 0-.154-.018-.227.026-.435.008.123.056.06.034.193m4.268 6.483c.017-.007.13.104.175.138-.017.007-.13-.104-.175-.138m5.804-9.851c.044-.021-.247-.053-.173-.026.017.005.137.02.174.026m-1.276.083c-.034.017.116-.005.112-.023a.5.5 0 0 0-.111.024m-8.27 5.682.032.062.023.046c.005.032-.019.002-.044-.04-.035-.057-.072-.15-.01-.067m6.983-4.893c.074-.1-.195.165-.097.097zm-.44.486c.034-.036.17-.174.163-.18-.005-.014-.16.145-.162.18m-4.607 6.823c.009-.036.154.142.214.194-.008.037-.155-.14-.213-.194m-.94-1.062c.632.693.44.587-.047-.033.016-.014.009-.012.048.033m.808.9c-.038-.01-.11-.092-.159-.146.02 0 .12.111.16.146m8.076-7.925c-.055.008-.266-.054-.226-.056.01-.003.247.047.226.056m-9.821 5.715q.002-.005.007-.003c.029.006.137.203.142.223.02.086-.132-.2-.151-.223zm2.9 3.293c.055.016.158.123.23.185-.046-.012-.17-.131-.23-.185m-.492-.472c.005.003.1.094.104.099.063.09-.205-.166-.104-.1m10.068-3.766.019-.1c.026-.078-.028.197-.02.1"/></svg>